<?xml version="1.0" encoding="UTF-8"?>
<svg id="Layer_2" data-name="Layer 2" xmlns="http://www.w3.org/2000/svg" xmlns:xlink="http://www.w3.org/1999/xlink" viewBox="0 0 1263.69 1037.34">
  <defs>
    <style>
      .cls-1 {
        fill: url(#linear-gradient-15);
      }

      .cls-2 {
        fill: url(#linear-gradient-13);
      }

      .cls-3 {
        fill: url(#linear-gradient-2);
      }

      .cls-4 {
        fill: url(#linear-gradient-10);
      }

      .cls-5 {
        fill: url(#linear-gradient-12);
      }

      .cls-6 {
        fill: #200501;
      }

      .cls-7 {
        fill: #c26526;
      }

      .cls-8 {
        fill: url(#linear-gradient-4);
      }

      .cls-9 {
        fill: #964517;
      }

      .cls-10 {
        fill: url(#linear-gradient-3);
      }

      .cls-11 {
        fill: url(#linear-gradient-5);
      }

      .cls-12 {
        fill: url(#linear-gradient-8);
      }

      .cls-13 {
        fill: #ac581c;
      }

      .cls-14 {
        fill: url(#linear-gradient-14);
      }

      .cls-15 {
        fill: #742f0e;
      }

      .cls-16 {
        fill: url(#linear-gradient-7);
      }

      .cls-17 {
        fill: #522009;
      }

      .cls-18 {
        fill: url(#linear-gradient-9);
      }

      .cls-19 {
        fill: url(#linear-gradient-11);
      }

      .cls-20 {
        fill: url(#linear-gradient-6);
      }

      .cls-21 {
        fill: #501908;
      }

      .cls-22 {
        fill: #fefefe;
      }

      .cls-23 {
        fill: #a24f1b;
      }

      .cls-24 {
        fill: url(#linear-gradient);
      }

      .cls-25 {
        fill: #380c03;
      }
    </style>
    <linearGradient id="linear-gradient" x1="-737.87" y1="-2764.23" x2="-740.41" y2="-2755.3" gradientTransform="translate(2981.63 11389.58) scale(3.91)" gradientUnits="userSpaceOnUse">
      <stop offset="0" stop-color="#923b0c"/>
      <stop offset="1" stop-color="#c87132"/>
    </linearGradient>
    <linearGradient id="linear-gradient-2" x1="-598.76" y1="-2866.27" x2="-604.82" y2="-2865.4" gradientTransform="translate(2981.63 11389.58) scale(3.91)" gradientUnits="userSpaceOnUse">
      <stop offset="0" stop-color="#581505"/>
      <stop offset="1" stop-color="#99481a"/>
    </linearGradient>
    <linearGradient id="linear-gradient-3" x1="-464.61" y1="-2785.58" x2="-462.53" y2="-2780.09" gradientTransform="translate(2981.63 11389.58) scale(3.91)" gradientUnits="userSpaceOnUse">
      <stop offset="0" stop-color="#72240d"/>
      <stop offset="1" stop-color="#994919"/>
    </linearGradient>
    <linearGradient id="linear-gradient-4" x1="-625.16" y1="-2903.8" x2="-637.41" y2="-2890.06" gradientTransform="translate(2981.63 11389.58) scale(3.91)" gradientUnits="userSpaceOnUse">
      <stop offset="0" stop-color="#4a0000"/>
      <stop offset="1" stop-color="#b15723"/>
    </linearGradient>
    <linearGradient id="linear-gradient-5" x1="-681.2" y1="-2859.05" x2="-671.76" y2="-2867.36" gradientTransform="translate(2981.63 11389.58) scale(3.91)" gradientUnits="userSpaceOnUse">
      <stop offset="0" stop-color="#9b4818"/>
      <stop offset="1" stop-color="#cc7931"/>
    </linearGradient>
    <linearGradient id="linear-gradient-6" x1="-498.27" y1="-2736.68" x2="-494.59" y2="-2740.51" gradientTransform="translate(2981.63 11389.58) scale(3.91)" gradientUnits="userSpaceOnUse">
      <stop offset="0" stop-color="#521d06"/>
      <stop offset="1" stop-color="#b2581f"/>
    </linearGradient>
    <linearGradient id="linear-gradient-7" x1="-541.65" y1="-2857.78" x2="-543.23" y2="-2861.47" gradientTransform="translate(2981.63 11389.58) scale(3.91)" gradientUnits="userSpaceOnUse">
      <stop offset="0" stop-color="#391304"/>
      <stop offset="1" stop-color="#823811"/>
    </linearGradient>
    <linearGradient id="linear-gradient-8" x1="-705.5" y1="-2761.59" x2="-704.13" y2="-2809.85" gradientTransform="translate(2981.63 11389.58) scale(3.91)" gradientUnits="userSpaceOnUse">
      <stop offset="0" stop-color="#2e0b02"/>
      <stop offset="1" stop-color="#581f0e"/>
    </linearGradient>
    <linearGradient id="linear-gradient-9" x1="344.11" y1="1942.37" x2="423.93" y2="1719.2" gradientTransform="translate(564 2314.91) scale(1 -1)" gradientUnits="userSpaceOnUse">
      <stop offset="0" stop-color="#934415"/>
      <stop offset="1" stop-color="#c0682d"/>
    </linearGradient>
    <linearGradient id="linear-gradient-10" x1="-551.7" y1="-2778.89" x2="-531.97" y2="-2766.74" gradientTransform="translate(2981.63 11389.58) scale(3.91)" gradientUnits="userSpaceOnUse">
      <stop offset="0" stop-color="#4e1e0a"/>
      <stop offset="1" stop-color="#743518"/>
    </linearGradient>
    <linearGradient id="linear-gradient-11" x1="-124.55" y1="1814.68" x2="-100.65" y2="1850.44" gradientTransform="translate(564 2314.91) scale(1 -1)" gradientUnits="userSpaceOnUse">
      <stop offset="0" stop-color="#9e4511"/>
      <stop offset="1" stop-color="#ac5f25"/>
    </linearGradient>
    <linearGradient id="linear-gradient-12" x1="78.82" y1="1687.69" x2="686.91" y2="1857.54" gradientTransform="translate(564 2314.91) scale(1 -1)" gradientUnits="userSpaceOnUse">
      <stop offset="0" stop-color="#0b0100"/>
      <stop offset="1" stop-color="#521b0c"/>
    </linearGradient>
    <linearGradient id="linear-gradient-13" x1="92.23" y1="1816.15" x2="-401.94" y2="1688.26" gradientTransform="translate(564 2314.91) scale(1 -1)" gradientUnits="userSpaceOnUse">
      <stop offset="0" stop-color="#1e0800"/>
      <stop offset="1" stop-color="#541d0e"/>
    </linearGradient>
    <linearGradient id="linear-gradient-14" x1="-287.88" y1="1939.24" x2="-324.15" y2="2070.16" gradientTransform="translate(564 2314.91) scale(1 -1)" gradientUnits="userSpaceOnUse">
      <stop offset="0" stop-color="#561b0a"/>
      <stop offset="1" stop-color="#924515"/>
    </linearGradient>
    <linearGradient id="linear-gradient-15" x1="340.18" y1="2018.47" x2="274.04" y2="1938.76" gradientTransform="translate(564 2314.91) scale(1 -1)" gradientUnits="userSpaceOnUse">
      <stop offset="0" stop-color="#561905"/>
      <stop offset="1" stop-color="#b05111"/>
    </linearGradient>
  </defs>
  <g id="Layer_1-2" data-name="Layer 1">
    <g>
      <path class="cls-21" d="M1103.18,214.09c8.92-3.01,18.02-5.69,27.48-5.86-9.11,2.31-18.65,5.98-26.91,10.56l1.74-2.6-1.94-1.24-.36-.85Z"/>
      <path class="cls-9" d="M233.18,432.31c-1.12.06-6.53-3.36-7.95-4.04-3.55-1.7-7.19-3.13-11.05-3.93-2.96-.62-6.25-.7-9.01-1.95,2-.63,4.66-.12,6.74.03,8.76.63,15.65,2.45,23.86,5.42l.69.18.17.51c.49,1.42.97,2.52,1.8,3.76-1.77.72-3.36-.22-5.26.03Z"/>
      <path class="cls-9" d="M103.44,579.58c-3.4-3-6.54-6.34-10.11-9.12-7.2-5.62-15.38-10.29-23.05-15.23l.63-.46c11.59,5.74,24.03,11.73,34.02,20.11.78,1.87,1.5,3.64,2.61,5.33-1.91-.94-2-1.32-4.1-.62Z"/>
      <path class="cls-15" d="M321.48,144.99l26.95-30.51c-8.03,15.92-22.05,27.27-29.84,43.24-.08-3.3,1.2-7.28,1.84-10.56l1.05-2.17Z"/>
      <path class="cls-25" d="M782.55,295.18l-2.96-47.66c1.64,2.48,2.01,6.73,2.55,9.67,1.9,10.23,3.25,20.33,3.81,30.74.56,1.85.15,3.98-.24,5.84l-.65,1.42c-1.25.23-1.29-.58-2.51,0Z"/>
      <path class="cls-15" d="M484.86,164.82c4.36-7.14,8.16-14.66,11.69-22.26,1.83-3.93,3.25-8.95,5.73-12.46-5.14,19.71-14.24,36.98-21.92,55.63l-.84-.45c1.35-4.47,3.41-10.44,5.95-14.31.96-1.46,1.57-2.83,1.2-4.65-.18-.86-1.11-1.09-1.8-1.51Z"/>
      <path class="cls-21" d="M317.59,135.69c1.25-4.8,2.85-9.88,3.16-14.85.8-12.59-5.02-24.01-10.78-34.68,6.87,5.31,10.42,18.39,13.23,26.48l3.41-14.48c.66,4.7-.69,9.05-1.59,13.63-1.54,7.83-3.69,15.89-4.87,23.75l-2.56.14Z"/>
      <path class="cls-17" d="M717.63,157c7.22-11.38,11.92-22.88,15.18-36.06.12,14.02-4.66,28.29-11.67,40.24-1.29-.64-1.85-.24-3.19.06l-.32-4.24Z"/>
      <path class="cls-15" d="M678.36,321.11c1.73-14.5,2.21-28.72.29-43.22-.49-3.7-1.03-7.39-1.82-11.04-.61-2.81-1.69-5.69-1.48-8.59,5.22,15.66,8.39,32.17,8.85,48.73-.93-2.74-2.02-5.17-1.51-8.11-1.4,7.61-.57,15.72-2.2,23.11l-2.13-.88Z"/>
      <path class="cls-9" d="M1025.91,369.92l.74,1.25,36.26-3.34c-3.91,2.06-8.95,2.49-13.24,3.57-8.71,2.19-17.39,4.82-26.21,6.5v-.67c-.56-.25-.93-.77-1.37-1.22.74-.96,1.27-1.67,1.63-2.85l1.04-2.88,1.16-.36Z"/>
      <path class="cls-7" d="M1023.71,373.16c5.01-.98,9.69-1.36,14.78-.82-4.9,2.04-10.23,2.78-15.04,4.88-.56-.25-.93-.77-1.37-1.22.74-.96,1.27-1.67,1.63-2.85Z"/>
      <path class="cls-21" d="M459.38,61.97c-15.48-15.02-29.72-34.31-38.02-54.46,2.82,2.99,4.98,7.1,7.31,10.53l10.04,13.56c.46,3.77.9,4.44,3.09,7.48,5.75,7.97,14.31,15.01,21.11,22.19l-3.53.69Z"/>
      <path class="cls-25" d="M1040.18,670.17c26.01-.2,49.81,1.67,72.24,16.23l-.74.4c-20.73-12.36-43.71-13.8-67.2-13.22l-1.55.47c-1.42-1.26-2.33-1.96-2.74-3.88Z"/>
      <path class="cls-25" d="M1070.69,182.37c13.11-10.87,28.29-17.92,42.45-27.09,2.99-1.94,6.02-3.89,8.85-6.06,2.07-1.58,4.06-3.61,6.44-4.64-1.93,3.05-5.46,5.7-8.25,7.92-8.59,6.86-17.93,12.29-27.06,18.33-4.26,2.82-8.15,6.07-12.05,9.39-3.32.99-6.89,2.37-10.39,2.14Z"/>
      <path class="cls-9" d="M368.78,374.92c2.79,3,3.75,8.91,4.87,12.87.76,8.89,3.46,18.12,5.18,26.9,2.25,11.54,3.78,23.44,6.77,34.79-2.01-1.32-3.81-3.63-4.37-6.03l-12.45-68.53Z"/>
      <path class="cls-23" d="M77,619.31c-15.56-.07-31.85.63-47.23,3.17l-18.11,3.34c-3.82.8-7.75,2.06-11.66,2.06,5.77-2.25,12.31-3.69,18.31-5.16,14.35-3.53,28.92-6.12,43.6-7.64l1.62.75-1.75.55.55.05c1.17.15.35.03,1.44.39,2.28.77,5.46.47,7.87.54l-1.08.93c2.16.24,4.34.39,6.43,1.03Z"/>
      <path class="cls-25" d="M466.84,192.77c-.46-9.52-1.19-18.85-3.12-28.19-3.94-19.03-10.97-36.81-16.5-55.32,2.98,4.51,5.22,9.5,7.59,14.36,0,5.97,2.79,10.77,4.41,16.37l7.9,29.66c2.34,10.68,2.09,22.12,1.92,33.01l-.83.36c-1.18-.94-.77-7.96-1.36-10.25Z"/>
      <path class="cls-15" d="M1004.89,373.81c1.33-12.74-7.69-29.05-13.73-39.91l.28-.88c7.03,9.07,11.66,19.91,15.83,30.57l13.28-33.31c-.35,3.86-2.05,7.79-3.11,11.54-2.63,9.39-5.09,18.87-8.67,27.94-1.22,1.67-1.75,3.08-2.33,5.07l-.2.66-.11.4h-1.27s.03-2.08.03-2.08Z"/>
      <path class="cls-13" d="M326.61,98.16c2.28-10.55,4.39-21.78,4.66-32.6,1.62,2.68.8,8.7.63,11.96-.83,15.7-3.22,31.32-6.27,46.71-1.33,6.7-3.86,14.01-4.15,20.77l-1.05,2.17c.04-2.68.3-4.96-1.11-7.34-.06-1.23.56-3.04.83-4.28,1.19-7.86,3.33-15.92,4.87-23.75.9-4.58,2.25-8.93,1.59-13.63Z"/>
      <path class="cls-9" d="M323.19,290.14c-8.91-9.89-16.67-22.6-23.75-33.94-3.65-5.84-7.7-11.57-10.91-17.67l.38-.64c2.93,4.98,6.72,9.38,10.22,13.95,9.07,11.85,19.1,23.1,27.65,35.32.7,2.72.87,3.15,2.86,5.07l-.65.67-1.46-1.39-.79.66-3.55-2.02Z"/>
      <path class="cls-15" d="M732.79,277.23c-4.33-17.04-7.01-33.87-8.6-51.39.7.66.81,1.76.93,2.7,1.67,12.4,3.99,24.32,7.3,36.39,3.38-11.17,7.01-21.38,12.01-31.92.59,2.7-2.83,9.51-3.82,12.35-1.97,5.62-3.64,11.01-4.62,16.91-.16.97-.87,3.54-.68,4.43,1.1,5.05,5.29,10.6,7.72,15.16-.36.59-.65,1.12-.9,1.78l-.19.55c-4.02-.51-4.65-4.44-7.68-6.13-.49-.28-1-.53-1.48-.84Z"/>
      <path class="cls-13" d="M104.93,574.87c5.15,4,10.58,8.91,13.76,14.77,3.24,5.98,4.65,13.03,6.62,19.54.57,1.9,1.42,5.49,2.62,7.05.88,1.14,5.92,1.91,7.41,2.22l-5.4,2.56c-2-.57-4.99-.24-6.75-1.03-.26-.12-.55-.23-.71-.46-.54-.76-.57-6.31-.78-7.83-.67-4.95-1.93-9.8-3.52-14.52-.08-1.73-.95-3.12-1.7-4.63l-1.08-.07c-1.5-1.42-2.35-2.37-4.44-2.47l-7.53-10.44c2.1-.69,2.19-.32,4.1.62-1.11-1.69-1.83-3.46-2.61-5.33Z"/>
      <path class="cls-15" d="M103.44,579.58c2.1-.69,2.19-.32,4.1.62,3.22,3.64,7.31,7.64,8.95,12.36l-1.08-.07c-1.5-1.42-2.35-2.37-4.44-2.47l-7.53-10.44Z"/>
      <path class="cls-15" d="M356.13,242.81c6.19-22.44,7.2-46.92,7.72-70.11,1.25,1.38.92,5.37,1,7.38.29,6.92.68,13.87.43,20.8l-3.22,46.88-.69,1.97c-2.31-1.81-3.92-4.29-5.23-6.91Z"/>
      <path class="cls-15" d="M694.45,195.62l59.21-1.1c-20.81,7.08-42.42,4.57-63.67,8.22-.26-.86-.31-1.31-.23-2.24.15-1.57,3.44-3.78,4.69-4.88Z"/>
      <path class="cls-17" d="M574.59,174.68l2.14,1.7c-2.75,11.5-.4,19.19,2.53,30.27,2.52,9.55,5.43,19.17,7.33,28.86,3.55,18.08,4.04,36.24,1.02,54.44-1.43-2.23-.52-11.71-.54-14.61-.07-13.37-.97-27.45-3.58-40.59-.92-6.99-2.01-13.91-3.83-20.72-3.65-13.67-8.91-24.91-5.07-39.34Z"/>
      <path class="cls-15" d="M736.43,291.2l-.12-.06c-14.69-9.49-24.83-24.66-33.01-39.93-5.29-9.87-10.25-20.72-12.9-31.69,5.75,10.91,11.46,22.07,18.44,32.23,3.29,4.79,7.16,9.14,10.77,13.67.46,2.73,1.75,3.71,3.47,5.7l-.5-.11c-3.72-.98-7.19-5.72-9.82-8.5,2.15,4.06,5.51,6.81,7.53,10.65,3.4,6.47,10.54,12.51,16.57,16.24.68.42.43.26,1.16.87l-1.59.91Z"/>
      <path class="cls-13" d="M242.95,426.11c1.27-5.41,2.7-10.52,4.91-15.63,4.65-10.79,10.17-19.43,10.98-31.55l.63.06c2.66,8.53-1.75,20.59-4.33,28.73-1.24,3.92-2.16,7.93-3.58,11.79-.85.92-.95,1.58-1.18,2.8-.15.83-.07.47-.32,1.26-1.37,4.41-.49,10.78-.39,15.44-2.17-2.89-3.75-5.22-4.86-8.74-.2-.63-.4-1.05-.78-1.58h-.18s-.91-2.56-.91-2.56Z"/>
      <path class="cls-21" d="M678.36,321.11l2.13.88-4.82,46.78c.03,4.11-.28,8.64.79,12.61l.16.54-.62.99-.33-1.33c-.51-1.42-.57-2.47-.65-4-.52.71-.69,1.13-.92,2.02l-.2.87-1.15-.89.51-2.44.14-.57c-1.31-2.01-.07-3.65-.65-5.67-.13-.45-1.59-1.78-1.97-2.21.16-2.44.84-6.06.54-8.42-.2-1.56-1.97-4.24-2.74-5.72-3.83-7.32-9.63-14.54-12.33-22.25,5.92,6.72,11.07,14.85,15.75,22.52,1.4-2.81,1.74-7.12,2.31-10.28l4.04-23.46Z"/>
      <path class="cls-21" d="M615.61,107.2l15.65-16.01c-12.95,22.33-31.47,40.82-44.58,63.3-4,6.87-8.02,14.08-9.95,21.88l-2.14-1.7c3.45-12.06,9.94-23.91,16.93-34.21l15.65-21.22c2.1-2.6,6.08-5.66,7.6-8.45.45-.82.62-2.62.85-3.59Z"/>
      <path class="cls-24" d="M110.97,590.02c2.09.1,2.94,1.05,4.44,2.47l1.08.07c.76,1.51,1.62,2.9,1.7,4.63l-.03.58c-.09,2.52.59,4.34.96,6.75l1.71,14.46c-1.17.67-3.61.04-4.96-.08l-16.29-1.39-27.94-.15c-2.42-.06-5.59.23-7.87-.54-1.09-.37-.27-.25-1.44-.39l-.55-.05,1.75-.55-1.62-.75.03-.09c18.18-2.13,35.96-1.33,54.11.68-.25-9.39-1.57-16.95-5.09-25.64Z"/>
      <path class="cls-17" d="M972.1,175.19l-3.81,1.52c-.94-.68-1.41-1.4-2.6-1.19-2.96.51-6.93,3.18-9.85,4.4-13.28,5.61-26.58,10.63-39.52,17.12-.57-2.2-.89-4.4-1.13-6.66l54.72-22.31c.76,2.12,1.45,4.12,1.96,6.32l.23.79Z"/>
      <path class="cls-7" d="M204.23,270.13c-3.4-7.56-4.95-16.13-6.63-24.22-1.55-7.5-3.46-15.65-3.49-23.3,2.57,9.26,4.57,18.64,7.68,27.74,7.13,20.81,17.72,39.04,31.33,56-2.39.35-3.86.24-6.13-.61-7.38-10.83-15.97-21.76-21.06-34.01-.49-1.17-.66-1.02-1.71-1.59Z"/>
      <path class="cls-21" d="M111.08,694.73c-2.26-2.23-4.33-4.03-7.35-5.15-3.06-1.13-6.95-.96-10.17-1.15-7.14-.42-14.24-.68-20.98-3.38-6.57-2.63-11.74-7.17-17.12-11.69,6.79,3.59,13.51,7.41,21.17,8.61,10.52,1.65,21.77-2.12,32.06,1.72,3.64,1.36,6.68,3.85,9.72,6.23-1.16,2.34-4.38,4.34-6.75,5.21l-.57-.39Z"/>
      <path class="cls-7" d="M235.77,427.83c.31-3.47-1.97-8.37-3.08-11.66-4.3-12.76-9.79-24.27-19.21-33.91-4.19-4.29-8.72-8.02-12.53-12.71,9.09,6.09,19.47,12.99,26,22.01,7.39,10.2,11,23.05,16,34.54l.91,2.55-.4.82c-1.27,2.81.5,6.53,1.39,9.26-3.35-2.4-6.05-7.34-7.65-11.1l-.27-.64-.47,1.01-.69-.18Z"/>
      <path class="cls-17" d="M995.36,155.66c-2.2.15-2.23.37-3.79,1.82l.65,1.65c-2.56,1.31-4.67,3.66-6.83,5.57l-9.19,7.49-.68.09-2.61-6c6.71-3.48,12.66-7.57,18.52-12.38-1.55-15.31-3.76-30.39-3.41-45.81,1.2,3.92,1.26,8.3,1.73,12.35,1.09,9.29,2.22,20.65,5.14,29.5,12.83-11.54,22.95-24.6,32.88-38.78l.64.3c-9.71,16.09-20.44,30.39-33.06,44.21Z"/>
      <path class="cls-23" d="M680.5,321.99c1.63-7.39.8-15.5,2.2-23.11-.51,2.94.58,5.37,1.51,8.11,2.33,24.75-2.08,49.79-2.11,74.62-.37-1.62.06-5.35-.55-6.52-.96-1.83-4.35-4.64-5.87-6.32l4.82-46.78Z"/>
      <path class="cls-21" d="M868.21,102.19c.91-4.45,2.11-8.99,2.16-13.56.2-20.81-13.03-40.58-10.51-61.55,2.56,17.31,8.65,31.77,14.25,48.05,4.82-10.07,9.71-19.05,16.97-27.56l.25.85c-3.44,4.56-6.55,9.22-9.25,14.28-1.77,3.3-3.02,6.94-5.08,10.05-4.29,6.46-2.6,15.53-2.73,23.03-.07,3.91-.76,7.97-1.45,11.82l-1.28,1.35-1.31-.16c-.92,1.17-1.29,1.19-1.28,2.75.01.97-.08,1.68-.4,2.61l.55,1.83c-.65,2.7-1.66,4.12-3.43,6.14-1.4-2.27,2.11-4.5,2.07-7.15l-.04-.87c-.2-.88.43-3.54.93-4.3l.3-.35c-.06-.98-.09-1.85-.42-2.79-.4-1.15.25-.89.38-1.88.06-.52-.51-2.01-.66-2.59Z"/>
      <path class="cls-15" d="M284.68,146.63c-3.85-3.88-6.96-8.24-11.01-12.02-24.04-22.4-52.11-31.67-82.83-40.65,5.15-.42,11.02,1.17,16.06,2.31,13.54,3.05,26.78,7.21,39.64,12.5l-.14,2.27c2.59,2.14,5.58,3.28,8.35,5.09,10.68,6.97,37.94,24.11,39.53,37.69-3.05-2.37-5.53-5.78-8.63-8.34l-.98,1.16Z"/>
      <path class="cls-21" d="M326.78,287.15l23.86,28.8c1.31,1.61,4.89,7.36,6.6,7.7l.34,1.48-.47.77,9.19,16.36-1.27.77,2.3,3.93c-3.04-.39-6.19-2.66-8.59-4.5-2.6-5.74-6.4-10.95-9.87-16.17l-25.68-36.16,3.55,2.02.79-.66,1.46,1.39.65-.67c-1.99-1.92-2.16-2.35-2.86-5.07Z"/>
      <path class="cls-13" d="M326.78,287.15l23.86,28.8c1.31,1.61,4.89,7.36,6.6,7.7l.34,1.48-.47.77,9.19,16.36-1.27.77c-4.33-8.05-10.25-14.72-15.67-21.96-7.4-9.88-14.42-19.67-22.62-28.92l.79-.66,1.46,1.39.65-.67c-1.99-1.92-2.16-2.35-2.86-5.07Z"/>
      <path class="cls-9" d="M663.69,117.98c-3.46-7.44-6.14-15.36-9.15-23.01-9.58-24.35-18.96-49.87-18.59-76.59l.17-5.89c2.51,12.26,3.86,24.56,7.23,36.67,3.45,12.42,7.73,24.76,12.69,36.63l11.17,25.45c2.1,5.25,3.29,10.73,5.25,15.97.82,1.93-.32,4.01-.87,6.05l-1.44.71c-1.2-1.83-1.37-3.89-1.95-5.96-.98-3.44-2.17-6.96-3.6-10.23l-.9.19Z"/>
      <path class="cls-3" d="M623.4,237.56l.54-1.58c8.96-27.15-1.15-53.76-12.85-78.19,8.4,10.52,14.16,22.98,19,35.54,2.07-2.35,3.53-8.25,4.7-11.34,4.34-11.5,9.82-23.53,12.14-35.67.22-1.14.47-2.07.92-3.14-.46,13.06-5.67,27.99-9.56,40.48-1.77,5.69-3.78,11.23-4.62,17.17-1.12,7.91-.27,16.52-.44,24.55l-6.22,13.8-.72.22-.63-.7-.94.03-1.32-1.17Z"/>
      <path class="cls-17" d="M872.81,107.6l.83-.46c5.53-3.16,10.96-8.38,16.36-12.06,18.25-12.43,36.73-24.41,52.62-40.04,8-7.87,15.52-16.87,20.14-27.28l.39.66c-13.98,33.68-46.99,52.48-73.45,74.68l-11.51,10.46c-1.48,1.47-4.18,5-5.95,5.81l-.89-.57c-1.56.91-2.23,2.57-3.9,3.34.51-1.52,1.04-2.88,1.87-4.26.48-.8.73-1.22,1.01-2.14l-1.24.25-.55-1.83c.33-.93.41-1.64.4-2.61-.02-1.56.36-1.57,1.28-2.75l1.31.16,1.28-1.35Z"/>
      <path class="cls-21" d="M243.86,428.66h.18c.38.54.58.97.78,1.59,1.11,3.52,2.7,5.85,4.86,8.74-.1-4.66-.98-11.03.39-15.44.24-.79.16-.42.32-1.26.22-1.22.33-1.88,1.18-2.8-1.06,6.7-1.53,14.95-.04,21.62,1.06,4.75,3.47,9.35,5.55,13.7,5.52,11.5,12.28,22.17,19.39,32.71-3.39-.75-6.79-2.56-10-3.96-2.7-1.17-7.56-2.58-8.71-5.49l-11.38-23.37c-3.49-7.14-6.82-17.74-13.2-22.41,1.89-.25,3.48.69,5.26-.03-.83-1.24-1.31-2.34-1.8-3.76l-.17-.51.47-1.01.27.64c1.6,3.76,4.3,8.69,7.65,11.1-.89-2.73-2.66-6.45-1.39-9.26l.4-.82Z"/>
      <path class="cls-10" d="M1114.91,522.44l-2.72,25.81c9.24-3.35,18.66-6.73,27.52-11.06,32.57-15.95,63.82-39.84,89.98-65.16l.81.27c-11.53,14.81-26.04,29.56-40.74,41.07l-1.84-.83c-6.05,2.93-11.2,8.08-16.95,11.68-17.47,10.9-36.39,21.02-56.04,27.15-1.86.58-4.81,1.95-6.7,1.76.79-3.68,1.65-7.4,2.17-11.13.71-5.07.55-16.51,4.52-19.56Z"/>
      <path class="cls-21" d="M362.91,426.68c-2.21-6.8-4.55-13.46-7.35-20.03l-6.41-14.16c-1.19-2.43-3.14-5.32-3.57-7.99,9.89,14.66,17.11,29.72,23.29,46.34.29,6.51,9.46,13.58,13.1,18.79,3.69,5.27,8.96,14.06,10.51,20.19l-.44.37-.65-.55-.65,2.02c-.46-1.46-.81-3.05-1.63-4.35-.06,1.15-.03,2-.65,3-.2-1.57-.94-2.3-1.92-3.44l-.41-.46c-2.08-4.99-4.65-10-7.7-14.44-9.27-13.45-21.14-24.34-36.51-29.84-9.08-3.25-19.47-4.61-29.02-5.67-5.93-.66-11.83-.46-17.73-1.49,15-.73,29.27,1.29,44.16,2.67-9.44-10.83-22.74-19.62-34.36-27.86l.24-.53,28.25,18.94,28.75,18.82.71-.31Z"/>
      <path class="cls-7" d="M333.45,408.18l28.75,18.82.71-.31.41,1.74c-.58.07-1.17.26-1.75.21-2.19-.2-6.95-3.5-9.13-4.49-2.9-1.33-7.53-2.37-9.97-4.19l.86-1.33c-1.96-4.67-8.32-5.28-9.87-10.43Z"/>
      <path class="cls-23" d="M1069.47,496.31l-2.31-.41c-2.4-.23-4.4-2.3-6.35-3.69-3.27-2.33-6.29-4-10.31-4.46-10.24-1.15-19.88,1.14-30.05.87-9.86-.27-19.13-3.23-28.45-6.18-9.15-2.9-18.15-5.79-27.03-9.48,2.22-1.23,4.34-2.4,6.76-3.21l9.3,3.06c12.21,4.69,23.37,9.94,36.52,11.58,9.57,1.19,19.73-.96,29.29-1.89,19.06-1.86,37.48-1.33,56.06,4.25,3.97,1.19,7.73,3.1,11.72,4.24-2.03.72-5.73-1.13-7.81-1.7-2.66-.73-5.45-1.09-8.19-1.41-12.63-1.48-26.43-1.71-39.11-.43l9.98,8.87Z"/>
      <path class="cls-17" d="M766.99,117.66c-6.43-3.5-7.49-11.53-13.16-15.7-2.98-2.19-6.68-2.94-10.19-3.75-4.65-1.07-9.25-1.92-13.58-4.03-9.05-4.42-14.38-13.6-19.91-21.74l.4-.57c6.36,7.38,13.03,16.13,22.41,19.32,4.28,1.46,9.09,1.93,13.5,2.97,3.97.93,7.93,1.93,11.37,4.26,2.06,1.39,3.62,3.61,5.2,5.52,6.07,7.32,10.68,10.71,19.53,13.99-3.59-15.86-6.81-32.87-6.45-49.22.32-14.73,3.48-29.39,8.03-43.32,2.85-8.71,6.05-17.43,10.56-25.39l-9.85,43.45-.99-1.7c-1.19,1.16-1.6,4.32-1.97,5.98-3.02,13.58-1.5,29.74.56,43.38,1.58,10.49,3.19,21.67,7.68,31.35-1.53,1-3.83.9-5.62.47-1.69-.4-3.41-1.73-4.94-2.57-3.78-2.06-7.81-4.49-12-5.46l-1.62-1.78.97-.67c1.83,1.15,3.8,2.52,5.87,3.17l-.16-.84-.58-.27c-2.48-1.2-3.88-2.78-5.93-4.52-.64-.54-.9-1.01-1.38-1.67-1.28-1.79-2.73-2.79-3.88-4.75l-2.39-2.65c-2.15-2.33-5.3-3.48-8.23-4.37-.55-.16-1.03-.51-1.57-.69l-1.34-.12c-3.83-.43-7.83-2.2-11.61-2.55-2.09-.19-6.55-2.81-8.13-2.22,1.35,1.14,2.28,1.64,3.92,2.29l2.36,1.09c1.34.63,2.56.94,4,1.25,1.02.22.48.09,1.67.5,2.21.76,5.06,1.29,7.39,1.69,2.29.39,4.55,1.43,6.62,2.47l.78.35c1.95.95,4.34,4.38,5.31,6.29,2.01,3.99,5.7,6.93,7.34,10.73Z"/>
      <path class="cls-8" d="M438.71,31.6c18.57,19.73,36.89,38.84,58.3,55.45.19.15.95.66.99.81l11.52,7.8c.17-5.55-.07-11.74,1-17.16,2.87-14.47,16.79-27.16,24.08-39.66.43,1.7-1.7,4.86-2.6,6.39-5.74,9.78-14.71,19.92-17.18,31.21-1.21,5.54-.61,11.71.68,17.19.82,3.5,2.31,7.72,4.27,10.72,3.39,5.17,8.99,10.02,13.11,14.73,4.77,5.46,8.91,11.44,13.07,17.39,3.33,4.77,6.97,9.58,9.67,14.76l-2.4,1.8c-12.72-22.34-30.63-41.31-50.17-57.45l-11.76-8.91c-.51-1.36-7.48-6.24-9-7.47-6.84-5.59-13.17-11.58-19.36-17.92-6.8-7.19-15.36-14.22-21.11-22.19-2.19-3.04-2.63-3.71-3.09-7.48Z"/>
      <path class="cls-21" d="M1066.52,421.71c4.85-2.44,10.09-4.1,15.07-6.26l9.88-4.28c2.56-1.16,4.92-2.81,7.78-2.89-2.07,1.15-4.67,2.24-6.31,3.98v.47s41.07,6.38,41.07,6.38c13.9,1.74,28.14,2.44,42.03.2,12.23-1.97,23.82-6.09,35.53-10.05-4.84,3.71-10.71,5.89-16.26,8.28-30.96,13.36-63.13,8.23-95.45,4.55l-16.53-1.59c-2.8-.25-6.12-.86-8.9-.59-2.2.22-5.02,1.82-7.07,2.71l-.85-.91Z"/>
      <path class="cls-23" d="M1092.93,412.73l41.08,6.38-.8.35c-.81.4-1.39.82-2.3.92-2.06.22-4.47-.26-6.55-.39l-16.49-1.31c-8.51-.78-17.43-.78-25.8-2.5,3.33-1.23,6.4-2.28,9.96-2.47l.64-.03.26-.94Z"/>
      <path class="cls-25" d="M994.02,218.27l-1.4,2.25.27,1.17c-2.39,2.55-4.97,5.93-7.9,7.75,3.36-20.15-5.19-35.7-12.39-53.56l-.5-.68-.23-.79c-.51-2.2-1.2-4.2-1.96-6.32-2.59-7.42-2.69-15.29-1.89-23.01,1.08,7.7,1.64,14.08,4.9,21.22l2.61,6,.68-.09c5.99,6.95,11.72,20.1,13.76,29.13,2.4-6.99,2.54-15.07,3.19-22.42.03-6.68.03-13.15-.93-19.77l-.65-1.65c1.56-1.44,1.59-1.67,3.79-1.82l2.63,16.85c.83,14.73,1.4,31.84-3.97,45.75Z"/>
      <path class="cls-9" d="M995.13,187.53c-.29,6.28-.9,12.44-1.86,18.64-.4,2.6-.6,5.15-1.99,7.42-.74-1.45-.7-1.77-.61-3.42.59-3-.1-5.9-.7-8.86,2.4-6.99,2.54-15.07,3.19-22.42,2.32,2.76,1.79,5.05,1.98,8.63Z"/>
      <path class="cls-21" d="M997.99,172.51c-3.56,4.14-1.44,10.06-2.86,15.02-.19-3.58.35-5.87-1.98-8.63.03-6.68.03-13.15-.93-19.77l-.65-1.65c1.56-1.44,1.59-1.67,3.79-1.82l2.63,16.85Z"/>
      <path class="cls-15" d="M990.66,210.18l-9.11-21.86c-1.68-3.94-2.73-8.06-5.18-11.64l-.85-4.4.68-.09c5.99,6.95,11.72,20.1,13.76,29.13.6,2.95,1.29,5.85.7,8.86Z"/>
      <path class="cls-17" d="M71.65,617.35l27.94.15,16.29,1.39c1.35.13,3.79.75,4.96.08l-1.71-14.46c-.36-2.41-1.04-4.24-.96-6.75l.03-.58c1.59,4.72,2.85,9.57,3.52,14.52.21,1.52.24,7.07.78,7.83.17.23.46.34.71.46,1.75.79,4.74.46,6.75,1.03l5.4-2.56c16.05,3.87,31.36,8.35,46.54,15l21.55,10.21c-3.39,2.12-13.53,8.1-17.1,7.59-22.81-11.51-46.46-22.1-71.5-27.47-12.58-2.7-25.04-3.7-37.85-4.49-2.09-.64-4.27-.79-6.43-1.03l1.08-.93Z"/>
      <path class="cls-9" d="M135.35,618.46c16.05,3.87,31.36,8.35,46.54,15-6.36-.38-12.95-2.91-19.11-4.56-10.84-2.9-21.79-5.93-32.83-7.88l5.4-2.56Z"/>
      <path class="cls-13" d="M555.61,151.23c1.38.81,9.05,18.02,10.41,20.85,4.15-8.36,8.76-16.29,14.07-23.93,3.76-5.41,8.08-10.55,11.31-16.32,8.7-15.57,7.73-31.35,2.14-47.85-1.35-3.99-3.45-7.82-4.51-11.87l.37.28c1.74,1.63,3.23,5.68,4.22,7.9,6.11,13.68,8.58,25.84,8.38,40.83l13.62-13.91c-.23.97-.4,2.77-.85,3.59-1.52,2.79-5.5,5.85-7.6,8.45l-15.65,21.22c-6.99,10.3-13.48,22.15-16.93,34.21-3.85,14.43,1.41,25.67,5.07,39.34,1.82,6.81,2.92,13.73,3.83,20.72l-1.13,1.52c-2.72.36-4.6.72-7.09-.79l-6.47-28.3c-4.09-17.89-7.69-37.58-15.59-54.14l2.4-1.8Z"/>
      <path class="cls-23" d="M667.14,145.08c.27,3.2.8,6.71.64,9.91-.41,8.56-3.23,19.05-6.01,27.16-5.58,16.29-15.09,30.47-23.24,45.42-9.34,17.12-18.03,36.84-30.41,51.85l-6.83,8.73.15.63c-.34.72-.67,1.2-1.17,1.83-7.89,9.8-15.58,18.99-22.03,29.9,1.68-15.16,2.99-30.99,2.27-46.26-.62-12.95-2.66-26.09-5.24-38.77,2.49,1.51,4.37,1.14,7.09.79l1.13-1.52c2.61,13.14,3.51,27.22,3.58,40.59.02,2.9-.89,12.38.54,14.61l.49,1.14c3.52-3.7,6.35-8.34,9.45-12.42,9.35-12.33,21.09-26.07,25.85-41.1l1.32,1.17.94-.03.63.7.72-.22,6.22-13.8c17.45-23.33,30.77-50.96,33.9-80.3Z"/>
      <path class="cls-11" d="M246.54,108.77c19.59,8.51,37.22,19.5,49.51,37.73,3.81,5.65,6.65,11.95,10.45,17.55.6-.52,1.08-1,1.61-1.61l9.48-26.75,2.56-.14c-.27,1.24-.89,3.05-.83,4.28,1.41,2.38,1.15,4.66,1.11,7.34-.64,3.28-1.92,7.26-1.84,10.56-1.38,6.54-3.31,13.14-1.66,19.81l.13.54c1.31,5.29,4.13,10.44,6.44,15.34,5.85,12.41,12.06,23.96,20.48,34.77,3.78,4.85,8.91,9.46,12.15,14.61,1.31,2.63,2.92,5.11,5.23,6.91l.69-1.97c.07,1.35.15,2.07.95,3.2l24.35,32.36,21.69,32.81-4.02-.12-.3-.04-86.07-118.88c-1.34-2.1-2.92-3.91-4.52-5.81-.67-1.63-1.44-3.07-2.33-4.58-.99-3.52-3.06-6.99-4.65-10.28-3.82-7.93-7.77-15.42-12.87-22.59-1.59-13.58-28.85-30.71-39.53-37.69-2.77-1.81-5.76-2.95-8.35-5.09l.14-2.27Z"/>
      <path class="cls-25" d="M309.4,164.56l2.32-2.14,1.29.51-1.58,9.56-.56.33c-1.32-1.47-2.39-3.37-2.25-5.45.07-1.08.3-1.85.78-2.81Z"/>
      <path class="cls-15" d="M317.59,135.69l2.56-.14c-.27,1.24-.89,3.05-.83,4.28l-6.3,23.1-1.29-.51-2.32,2.14-1.29-2.13,9.47-26.75Z"/>
      <path class="cls-20" d="M979.99,634.4l-31.13-18.07,8.12-2.81c19.78,11.95,39.31,23.14,58.22,36.62,4.05,2.89,8.13,5.79,11.94,9,3.26,2.76,9.21,9.78,13.04,11.02.42,1.92,1.32,2.62,2.74,3.88l1.55-.47c.76,3.42,7.18,8.27,9.77,10.84l20.27,20.28c3.44,3.45,6.78,7.26,10.5,10.39,5.6,4.72,11.96,8.89,18.1,12.84,12.86,8.25,26.41,14.65,40.49,20.41l-.65.53c-12.85-4.58-25.47-9.68-37.21-16.78-4.28-2.58-8.24-5.5-12.17-8.59-.91-.71-3.74-3.41-4.71-3.53,9.1,11.08,19.38,21.55,30.13,30.95,5.07,4.43,10.63,8.33,15.54,12.92-6.27-.04-18.28-9.46-22.85-13.96-6.84-1.52-11.14-4.93-15.28-10.62-13.63-12.51-26.87-24.66-39.48-38.29-9.75-10.54-18.41-22.31-29.1-31.89-14.78-13.25-32.4-22.49-47.85-34.67Z"/>
      <path class="cls-17" d="M979.99,634.4c.78,0,2.19-.22,2.9-.02,3.22.92,7.47,4.33,10.34,6.16,15.87,10.12,31.77,20.64,45.14,34.15l36.69,39.07,13.93,14.18c1.27,1.31,3.99,3.52,4.71,5.09l10.55,10.18c2.46,2.2,5.26,4.15,7.43,6.66-6.84-1.52-11.14-4.93-15.28-10.62-13.63-12.51-26.87-24.66-39.48-38.29-9.75-10.54-18.41-22.31-29.1-31.89-14.77-13.25-32.4-22.49-47.85-34.67Z"/>
      <path class="cls-13" d="M353.95,106.6c13.49,16.94,30.05,30.72,46.4,44.6-8.18-21.33-17.4-48.53-6.99-70.83l.62-1.07c-.05,3.33-1.4,6.62-1.99,9.92-1.61,8.86-1.36,17.8.66,26.55,1.35,5.82,3.66,11.64,6.12,17.06l37.5,74.4,19.37,40.26c2.11,4.26,3.96,9.45,6.81,13.17l3.97-51.67c-.3-1.25.05-3.42.09-4.75l.31-11.47c.59,2.29.18,9.31,1.36,10.25l.83-.36c.17-10.88.42-22.33-1.92-33.01l-7.9-29.66c-1.63-5.6-4.41-10.41-4.41-16.37,8.97,18.34,16.44,38.38,19.44,58.74l10.6-17.53c.69.42,1.62.65,1.8,1.51.37,1.82-.24,3.19-1.2,4.65-2.54,3.87-4.6,9.84-5.95,14.31l.84.45c-2.65,7.57-5.21,15.15-6.58,23.1-3.98,23.04-1.03,48.73.84,71.94.78,2.89,1.94,5.26,3.33,7.88-6.75-1.45-18.16-26.05-22.76-32.22-1.53-3.92-3.78-7.5-5.53-11.33-3.43-7.52-6.84-16.76-11.61-23.46-8.68-18.72-16.72-37.29-29.26-53.76-7.16-9.41-16.5-16.48-25.16-24.32-6.87-6.22-13.35-13.11-19.37-20.19-4.26-5.01-8.78-10.15-10.3-16.78Z"/>
      <path class="cls-21" d="M466.84,192.77c.59,2.29.18,9.31,1.36,10.25l.83-.36-.65,12.07-1.26,39.06c.04,6.24-.09,13.32,1.29,19.4-1.99-3.49-5.68-8.5-5.95-12.53l3.97-51.67c-.3-1.25.05-3.42.09-4.75l.31-11.47Z"/>
      <path class="cls-25" d="M968.29,176.71c-2.94,1.64-5.8,3.06-8.03,5.67-1.23.39-2.35.79-3.64.93l-.81.5-36.78,17.36,19.98,47.55,1.45-5.2c-.22-.93.96-4.62,1.21-5.66l6.05-22.63c.84,1.56,1.33,2.86,1.73,4.61l2.24-1.97c-4.37,21.4-6.11,41.92-5.37,63.76.39,2.21-1.2,3.94-2.46,5.75l-1.92,2.54c-1.86,2.02-4.64,5.65-7.14,6.61l1.56-4.48c.28-11.56-2.08-20.51-4.96-31.58l-9.55-34.55c-3.71-6.91-3.92-15.85-7.65-22.69l1.19-.1c.35-2-.09-2.65-.79-4.51-.86-2.51-.6-4.76-2.12-7.1l-.2-.76c-3.16-12.45-1.7-26.94,4.88-37.92-1.16,4.18-2.97,8.8-3.47,13.09-.98,8.37.61,16.21,1.51,24.44.23,2.26.55,4.46,1.13,6.66,12.94-6.49,26.24-11.52,39.52-17.12,2.91-1.23,6.88-3.9,9.85-4.4,1.19-.2,1.67.51,2.6,1.19Z"/>
      <path class="cls-6" d="M937.68,256.61l2.34-1.14,1.02.73c-.12,2.1-.07,3.85-1.19,5.68l-2.17-5.26Z"/>
      <path class="cls-15" d="M942.65,254.06l.19,1.2c-.62-.32-.97-.47-1.56-.92-1.95-1.51-1.87-3.31-2.27-5.61l1.45-5.2c-.22-.93.96-4.62,1.21-5.66l6.05-22.63c.84,1.56,1.33,2.86,1.73,4.61l-6.8,34.21Z"/>
      <path class="cls-17" d="M942.84,255.26c-.62-.32-.97-.47-1.56-.92-1.95-1.51-1.87-3.31-2.27-5.61l1.45-5.2c2.64,3.6.36,6.92,2.19,10.53l.19,1.2Z"/>
      <path class="cls-9" d="M941.94,289.94c-1.86,2.02-4.64,5.65-7.14,6.61l1.56-4.48c.28-11.56-2.08-20.51-4.96-31.58l-9.55-34.55c-3.71-6.91-3.92-15.85-7.65-22.69l1.19-.1c.35-2-.09-2.65-.79-4.51-.86-2.51-.6-4.76-2.12-7.1l-.2-.76c-3.16-12.45-1.7-26.94,4.88-37.92-1.16,4.18-2.97,8.8-3.47,13.09-.98,8.37.61,16.21,1.51,24.44.23,2.26.55,4.46,1.13,6.66l21.36,59.56,2.16,5.26,1.15,2.5c-.51,8.5,1.29,17.01.95,25.56Z"/>
      <path class="cls-21" d="M937.04,290.8c-.34.76-.31.67-.67,1.26.28-11.56-2.08-20.51-4.96-31.58l-9.55-34.55.61-.38,7.96,22.24c4.03,11.45,11.88,31.18,6.61,43.01Z"/>
      <path class="cls-22" d="M960.26,182.38l-8.57,35.5-2.24,1.97c-.4-1.74-.88-3.04-1.73-4.61,3.22-10.11,7.24-21.48,8.89-31.93,1.29-.14,2.41-.54,3.64-.93Z"/>
      <path class="cls-21" d="M960.26,182.38l-8.57,35.5-2.24,1.97c-.4-1.74-.88-3.04-1.73-4.61,3.22-10.11,7.24-21.48,8.89-31.93,1.29-.14,2.41-.54,3.64-.93Z"/>
      <path class="cls-21" d="M672.46,127.21l11.81-37.19c1.75-4.79,3.4-10.31,5.81-14.75-.28,7.65-3.3,16.01-5.07,23.49l-7.31,32.49c-3.76,16.65-6.02,34.22-11.25,50.42-3.53,10.94-9.14,20.65-13.32,31.26h.67c3.47-.85,8.27-4.57,11.38-6.46,21.62-13.14,38.01-28.48,52.43-49.48l.32,4.24c1.34-.3,1.9-.7,3.19-.06-6.83,13.25-16.44,23.9-26.69,34.44-1.25,1.1-4.54,3.31-4.69,4.88-.09.93-.04,1.38.23,2.24-6.32,1.44-12.41,8.01-17.92,11.69-6.88,4.6-14.48,8.53-20.9,13.77-3.15,2.58-6.35,5.7-8.53,9.2l-59.76,98.78-1.22-1.95c.32-2.66.54-5.37,1.67-7.83l.74-1.73,5.21-11.54.19-.59c.25-1.81.87-3.03,1.84-4.52,3.74-5.74,6.51-13.03,10.72-18.36l.5-.61-1.09-.27-.15-.63,6.83-8.73c12.38-15.02,21.07-34.74,30.41-51.85,8.15-14.95,17.66-29.13,23.24-45.42,2.78-8.11,5.59-18.61,6.01-27.16.15-3.2-.37-6.71-.64-9.91.34-9.35-1.16-18.08-3.44-27.1l.9-.19c1.43,3.27,2.62,6.79,3.6,10.23.59,2.06.75,4.13,1.95,5.96l1.44-.71c.55-2.04,1.69-4.12.87-6.05Z"/>
      <path class="cls-9" d="M653.14,212.94h.67c3.47-.85,8.27-4.57,11.38-6.46,21.62-13.14,38.01-28.48,52.43-49.48l.32,4.24c-10.93,16.98-23.75,30.56-39.98,42.43-5.9,4.32-12.39,7.88-18.49,11.92-4.41,2.92-8.41,6.51-12.88,9.31,2.21-3.84,4.91-7.83,6.53-11.97Z"/>
      <path class="cls-25" d="M1006.96,447l59.56-25.29.84.91-51.75,25.6c-14.1,7.4-28.79,16.51-43.9,21.52-2.42.81-4.54,1.98-6.76,3.21,8.88,3.7,17.88,6.59,27.03,9.48,9.32,2.95,18.59,5.91,28.45,6.18,10.17.27,19.81-2.02,30.05-.87,4.02.45,7.04,2.13,10.31,4.46,1.95,1.39,3.95,3.46,6.35,3.69l2.31.41c10.82,9.15,22.17,15.37,35.86,18.68-5.07,2.73-17.15-.58-22.3-2.26-6.99-2.27-12.95-6.37-18.65-10.97-4.08-3.29-8.52-7.56-13.5-9.27-6.43-2.22-15.78-.11-22.55.2-6.26.29-12.52.14-18.73-.81-13.43-2.05-27.27-6.95-40.3-10.95-2.81-.86-9.17-3.89-11.75-3.78-.89.04-4.11,2.12-5.1,2.62l-19.11,9.67c-38.15,19.71-72.93,45.19-99,80.17-6.55,8.78-12.88,17.83-17.59,27.82l-.6,1.13-8.84,2.48c-.07-.47-.15-.89-.09-1.38.25-1.92,2.25-4.69,3.16-6.42,5.26-10.04,11.07-19.55,18.02-28.48,17.19-22.07,37.05-41.18,59.72-57.33,8.91-6.34,18.35-11.77,27.7-17.38,14.44-8.67,29.12-17.05,44.5-23.89l23.24-9.73c7.07-2.68,16.71-4.94,22.96-9.13l.45-.31Z"/>
      <path class="cls-6" d="M661.36,916.47l.83-6.28.45.56c4.57,4.71,6.48,14,8.04,20.27,6.83,27.28,13.11,57.52,39.59,71.56,4.2,2.23,9.02,4.92,13.64,5.98.94-.82,2.05-1.3,3.15-1.87,1.38.6,2.41.62,3.87.61l.45-1.77c1.75-1.77,4.85-1.13,7.28-1.13l-.79.2c-1.61.39-3.31.46-4.96.6,1.5,1.54,3.83,2.52,5.71,3.52l14.11,6.9,3.22,1.39,21.17,8.81-32.03-2.88c-12.24-.98-26.09-1.29-37.74-5.42-7.59-2.69-14.19-7.37-21.48-10.7-22.53-10.29-28.94,7.56-47.7,12.05-10.3,2.47-20.9-3.26-31.62-1.99-6.27.74-14.56,5.7-20.42,8.31l-28.65,12.13c6.27-8.43,12.41-17.27,20.24-24.28,3.03-2.71,6.32-5.13,9.53-7.61,1.29-.99,3.4-2.22,4.11-3.73l.32-.74c1.16.39,1.63.6,2.38,1.6l-10.69,12.13c6.23-1.24,11.55-5.67,18.23-6.48,14.72-1.8,30.15,5.77,44.45-.68,7.26-3.28,12.54-8.46,15.45-16.05,1.82-4.75,2.59-9.85,2.88-14.92.8-14.29-.97-29.26-1.71-43.57-.27-5.29.75-11.61-1.3-16.54Z"/>
      <path class="cls-17" d="M662.64,910.74c4.57,4.71,6.48,14,8.04,20.27,6.83,27.28,13.11,57.52,39.59,71.56,4.2,2.23,9.02,4.92,13.64,5.98.94-.82,2.05-1.3,3.15-1.87,1.38.6,2.41.62,3.87.61l.45-1.77c1.75-1.77,4.85-1.13,7.28-1.13l-.79.2c-1.61.39-3.31.46-4.96.6,1.5,1.54,3.83,2.52,5.71,3.52l14.11,6.9,3.22,1.39c-1.25.39-2.07.65-3.39.38-2.59-.53-5.24.26-7.87-.05-4.19-.49-8.46-1.61-12.64-2.35-12.97-2.29-26.86-5.31-37.57-13.65-16.22-12.63-21.77-33.97-25.7-53.44l-6.15-37.17Z"/>
      <path class="cls-9" d="M731.39,1005.53c1.75-1.77,4.85-1.13,7.28-1.13l-.79.2c-1.61.39-3.31.46-4.96.6,1.5,1.54,3.83,2.52,5.71,3.52l14.11,6.9-2.3.31c-7.53.98-19.08-4.99-26.52-7.38.94-.82,2.05-1.3,3.15-1.87,1.38.6,2.41.62,3.87.61l.45-1.77Z"/>
      <path class="cls-17" d="M428.52,213.6c-2.09-2.82-3.65-9.01-5.05-12.43-3.89-9.5-8.11-19.2-14.03-27.6-7.44-10.57-16.68-18.72-26.28-27.16-9.62-8.45-19.22-17.63-26.48-28.34-7.24-10.69-11.9-22.79-15.61-35.15,2.28,3.25,3.67,7.22,5.44,10.79,2.23,4.47,4.76,8.68,7.44,12.89,1.52,6.63,6.04,11.76,10.31,16.78,6.02,7.08,12.5,13.97,19.37,20.19,8.66,7.84,18,14.91,25.16,24.32,12.54,16.47,20.58,35.04,29.26,53.76,4.77,6.7,8.18,15.93,11.61,23.46,1.75,3.83,3.99,7.41,5.53,11.33,4.6,6.18,16.01,30.78,22.76,32.22l20.37,28.74c5.53,7.25,12.69,15,17.04,22.92,4.04,4.74,35.67,46.51,36.29,46.63l.47-.42.39.38c-.34,3.12.86,6.03,1.21,9.12l1.75,19.81-40.61-56.65c-21.77-25.18-56.87-32.29-88.01-36.27l-31.06-3.31-.51-.72c3.57-.06,9.76.68,12.48-1.67-.86-.59-1.78-.87-2.74-1.23l4.02.12c2.17.39,5.07-.09,7.31-.14l14.01.15c18.08.95,35.16,4.77,52.48,10-22.25-35.26-39.43-73.51-54.33-112.51Z"/>
      <path class="cls-9" d="M434.93,220.11c1.41.26,2.02.62,3.12,1.54,4.77,6.7,8.18,15.93,11.61,23.46,1.75,3.83,3.99,7.41,5.53,11.33,4.6,6.18,16.01,30.78,22.76,32.22l20.37,28.74c5.53,7.25,12.69,15,17.04,22.92-.91-.24-1.79-.52-2.62-.98-3.72-2.08-7.11-5.78-10.2-8.76-17.69-17.04-31.17-37.77-43.12-59.21-2.37-4.26-5.58-8.76-6.89-13.48-7.39-11.53-11.63-25.4-17.61-37.78Z"/>
      <path class="cls-21" d="M245.83,636.72c-1.84,2.2-6.78,3.23-9.5,4.25l-.21,1.65.62.42.03,1.35c1.02.21,1.05.11,1.96-.33,1.44-.7,2.6-.48,4.07-.83,2.45-.6,5.04-1.74,7.49-2.33,1.19-.29,2.4-.07,3.56-.58,1.4-.61,3.43-1.13,4.94-1.44l2.42-.48,1.63-.33c1.53-.5,3.3-.47,4.7-1.08.86-.38.19-.2,1.3-.43l4.1-.82,1.63-.33c3.17-1.05,6.52-1.32,9.77-2,1.27-.26,3.39-.43,4.5-.92.95-.42,1.69-.22,2.67-.42,2.79-.58,7.25-2.15,10.01-1.01l.74.34c2.9-2.49,9.43-.76,12.9-2.43l.78-.4c1.27.21.68.21,1.96.03,2.99-.43,6.33-.2,9.21-.86,2.83-.65,6.04.04,8.72-.67,2.76-.73,4.8-.09,7.6.44l-39.02,4.44c-2.88.46-6.02,3.77-8.24,5.61-8.9,7.37-16.93,14.82-23.52,24.5-5.01,7.37-14.56,22.43-12.66,31.7.95,4.64,5.25,10.09,7.48,14.34,8.37,15.9-.13,33-6.64,47.95,2.73-17.58,9.06-31.84-2.35-47.92l-7.97-10.5c-3.75,2.33-7.5,4.67-11.46,6.61l-8.97,4c-.61.26-2.59.87-2.99,1.27-1.88,1.89-3.88,8.15-5.25,10.79-7.46,14.42-21.03,23.85-36.48,27.37,9.1-4.59,18.33-9.97,24.61-18.36,3.16-4.22,5.37-9.37,7.64-14.14-11.15,2.59-21.41,3.1-32.82,2.97-6.44-.08-13.58-.21-19.83-1.81l30.06-4.09c22-7.19,43.2-12.94,57.78-32.8,4.07-7.57,7.04-15.72,10.99-23.34,2.63-5.07,5.97-9.75,9.15-14.46-31.66,8.48-61.95,18.94-92.13,31.85-29.01,12.41-58.29,27.55-83.59,46.82-30.49,23.22-56.97,52.81-78.77,84.58l-.33-.74c11.59-20.45,25.53-39.33,40.56-57.24,7.42-8.85,14.94-17.67,23.17-25.75l.52.95c-2.12,2.05-3.49,4.01-5.31,6.23-2.16,2.63-6.66,5.65-7.79,8.78.83-.72,1.58-1.42,2.3-2.25l.64-.75c3.54-1.2,8.06-7.96,11.08-10.67,1.25-1.13,2.8-1.79,4.08-2.93,10.53-9.48,20.55-18.34,32.32-26.28,25.14-16.96,52.87-29.2,80.71-40.61,14.99-6.14,29.91-12.22,45.42-16.88Z"/>
      <path class="cls-9" d="M272.95,641.63l6.32-1.5c-10.07,12.05-15.36,25.38-22.95,38.92-1.9,3.38-3.5,7.35-6.01,10.26l.1-.77.13-.94c.12-.93.18-1.26.7-2.07,1.03-1.58,2.03-3.26,2.49-5.12l-.92-.97c4.07-7.57,7.04-15.72,10.99-23.34,2.63-5.07,5.97-9.75,9.15-14.46Z"/>
      <path class="cls-23" d="M195.02,712.23c22-7.19,43.2-12.94,57.78-32.8l.92.97c-.46,1.85-1.46,3.54-2.49,5.12-.53.8-.58,1.14-.7,2.07l-.13.94-.1.77c-3.71,5.51-8.95,7.93-14.63,10.9-10.58,5.53-20.7,9.6-32.43,11.81-2.6.49-5.68,1.16-8.21.21Z"/>
      <path class="cls-13" d="M598.46,691.74c-1.04.84-.82.77-1.09,2-1.51,1.45-3.01,3.09-5.05,3.7l-.7.2-.88.29c-7.32,2.32-14.44.17-21.3-2.54-19.42-7.65-34.05-21.76-50.65-33.99-11.46-8.44-23.44-16.89-35.91-23.7-23.77-12.99-51.12-21.35-77.94-23.9-22.24-2.11-45.04-.28-67.16,2.29-12.93,1.5-25.83,2.79-38.58,5.58-18.01,3.94-35.79,9.53-53.38,15.05-15.51,4.67-30.43,10.74-45.42,16.88-27.84,11.41-55.57,23.64-80.71,40.61-11.76,7.94-21.78,16.8-32.32,26.28-1.28,1.15-2.82,1.8-4.08,2.93-3.02,2.71-7.54,9.47-11.08,10.67l-.64.75c-.72.83-1.48,1.53-2.3,2.25,1.13-3.13,5.63-6.15,7.79-8.78,1.82-2.21,3.2-4.18,5.31-6.23l-.52-.95c1.04-2.04,4.39-4.64,6.11-6.28l23.12-20.13.57.39c2.36-.87,5.59-2.88,6.75-5.21,2.8-2.94,7.31-5.25,10.74-7.46,11.55-7.45,23.55-14.15,35.77-20.4,7.07-3.62,14.61-6.79,21.44-10.78,3.57.51,13.7-5.47,17.1-7.59,6.55-3.86,14.75-6.24,21.87-8.88,41.51-15.41,86.3-26.53,130.35-30.29l22.71-.78c6.31.08,14.45,1.34,20.53,0l.27.32c2.36,2.63,9.92,2.5,13.56,2.78h.13c11.8,1.86,24.39,3.42,35.73,7.31,6.34,2.17,12.47,4.83,18.9,6.75,2.84.85,5.91,1.85,8.89,1.59,17.86,7.36,34.68,17.51,50.72,28.35,21.63,14.62,44.3,38.89,71.35,40.93Z"/>
      <path class="cls-6" d="M915.39,203.14l-1.19.1-33.87,14.33c-21.91,9.58-46.31,21.32-59.41,42.8l-2.18,2.64v.04s-9.3,15.7-9.3,15.7c-1.32,2.75-1.48,6.46-1.93,9.48-.76,5.14-1.74,10.62-3.21,15.6l-4.79-1.36c-.8-.17-1.17-.12-1.87-.6-.86-.58-2.38-.25-3.44-.21-4.9-1.62-9.87-3.45-14.89-4.6-13.3-3.04-27.48-4.22-39.3-11.73-6.11-3.88-11.58-9.28-16.93-14.19-1.73-1.99-3.02-2.97-3.48-5.7l13.19,11.8c.48.31.98.57,1.48.84,3.03,1.7,3.67,5.63,7.68,6.13l.19-.55c.25-.66.54-1.18.9-1.77.97,1.42,2.03,3.07,3.48,4.01,2.72,1.78,6.6,2.7,9.66,3.67,8.35,2.63,16.78,4.45,25.35,6.11l1.02-.49c1.22-.57,1.25.24,2.51,0l.65-1.42c.39-1.86.8-3.99.24-5.84.31-.46.36-.5.63-1.08,2.54-5.34,4.02-12.16,5.8-17.9,6.73-21.66,10.87-47.21,8.26-69.93-1.25-10.93-3.94-22.02-6.14-32.79-2.54-12.43-5.01-25.6-8.93-37.64-6.71-2.15-12.75-7.01-18.58-10.93-1.64-3.8-5.33-6.74-7.34-10.73-.97-1.92-3.36-5.34-5.31-6.29l-.78-.35c-2.07-1.03-4.33-2.07-6.62-2.47-2.33-.4-5.18-.94-7.39-1.69-1.19-.41-.65-.28-1.67-.5-1.44-.31-2.66-.62-4-1.25l-2.36-1.09c-1.65-.65-2.57-1.15-3.92-2.29,1.58-.6,6.04,2.02,8.13,2.22,3.78.35,7.78,2.12,11.61,2.55l1.34.12c.54.17,1.03.53,1.57.69,2.93.88,6.08,2.04,8.23,4.37l2.39,2.65c1.15,1.95,2.59,2.96,3.88,4.75.48.66.74,1.13,1.38,1.67,2.05,1.74,3.45,3.32,5.92,4.52l.58.27.16.84c-2.07-.65-4.03-2.02-5.86-3.17l-.97.67,1.62,1.78c4.2.97,8.22,3.4,12,5.46,1.53.84,3.25,2.17,4.94,2.57,1.78.42,4.09.52,5.62-.47-4.49-9.68-6.1-20.86-7.68-31.35-2.06-13.64-3.57-29.8-.56-43.38.37-1.66.78-4.82,1.97-5.98l.99,1.7c-1.27,12.13-2,23.76-.53,35.93,1.78,14.76,7.05,29.48,11.64,43.53l11.45,38.21c2.93,10.78,6.19,22.27,6.62,33.49,1.26-1.44,1.72-3.49,2.38-5.29,3.6-9.86,8.24-19.07,13.5-28.11,4.32-7.43,9.55-15.52,14.99-22.15,4.48-5.45,9.56-10.18,13.46-16.15,4.06-6.21,7.02-13.84,9.83-20.73.15.58.73,2.07.66,2.59-.12.99-.78.73-.38,1.88.33.94.36,1.81.42,2.79l-.3.35c-.5.76-1.12,3.42-.92,4.3l.04.87c.04,2.65-3.47,4.88-2.07,7.15,1.78-2.02,2.78-3.44,3.43-6.14l1.24-.25c-.28.92-.52,1.34-1.01,2.14-.83,1.38-1.36,2.74-1.87,4.26,1.67-.77,2.34-2.43,3.91-3.34l.89.57c-6.24,7.14-12.97,14.14-18.62,21.78-12.63,17.08-22.31,37.73-28.18,58.25-2.77,9.69-4.51,19.81-6.63,29.67,1.62.55,3.95-1.99,5.38-3,9.82-7.01,21.55-12.09,32.7-16.41,18.18-7.05,36.98-12.38,55.58-18.13,1.53,2.34,1.27,4.58,2.12,7.1.7,1.86,1.14,2.52.79,4.51Z"/>
      <path class="cls-17" d="M814.04,194.61c1.26-1.44,1.73-3.49,2.38-5.29,3.6-9.86,8.24-19.07,13.5-28.11,4.32-7.43,9.55-15.52,14.99-22.14,4.48-5.45,9.56-10.18,13.46-16.15,4.06-6.22,7.02-13.84,9.83-20.73.15.58.73,2.07.66,2.59-.12.99-.78.74-.38,1.88.33.94.36,1.81.42,2.79l-.3.35c-.5.76-1.12,3.42-.93,4.3-4.73,10.28-11.87,18.2-18.64,27.03-11.18,14.57-21.15,30.91-27.09,48.5-2.63,7.79-4.09,15.72-5.71,23.76l-1.71-12.23c-.21-2.17-.02-4.43-.5-6.55Z"/>
      <path class="cls-16" d="M912.48,191.53c1.53,2.34,1.27,4.58,2.12,7.1-9.26,1.98-18.48,5.9-27.36,9.27-18.1,6.88-36.89,13.64-53.07,24.58-6.89,4.66-12.19,10.39-18.48,15.67l3.13-19.08c1.62.55,3.95-1.99,5.38-3,9.81-7.01,21.55-12.09,32.7-16.41,18.18-7.05,36.98-12.38,55.58-18.13Z"/>
      <path class="cls-17" d="M785.57,128.59l6.39.89c13.94,45.35,19.57,94.65,10.03,141.52-1.5,7.36-3.87,14.13-5.98,21.28-.54,1.83-1.35,3.58-2.16,5.3l-.69-.33c-.66-.3-1.23-.51-1.92-.68l-.59-.69-1.25,1.27-2.9-.15c-.79-1.27-.73-1.71-.8-3.24.39-1.86.8-3.99.24-5.84.31-.46.35-.5.63-1.08,2.54-5.34,4.02-12.16,5.8-17.9,6.73-21.66,10.87-47.21,8.26-69.94-1.25-10.93-3.94-22.02-6.14-32.79-2.54-12.43-5.01-25.6-8.93-37.64Z"/>
      <path class="cls-12" d="M149.09,475.69l-24.42-25.43c-15.1-18.46-27.46-44.51-25.34-68.96,1.11,7.16,2.07,14.38,4.24,21.3,6.19,19.73,19.5,36.32,35.31,48.85,9.05,4.4,19.33,9.84,26.33,17.28,25.03-4.58,48.7-4.22,73.24,2.98l12.74,4.28c2.04.76,4.41,2.06,6.57,2.09,1.15,2.91,6.01,4.31,8.71,5.49,3.21,1.4,6.61,3.2,10,3.96,4.25,1.24,8.42,3.89,12.4,5.87,14.82,7.35,28.77,15.79,42.77,24.64,1.91,1.21,7.41,3.9,8.57,5.62,14.95,8.86,29.17,19.42,43.24,29.65l22.24,16.79c3.19,2.44,7.38,6.59,11.09,7.67l-20.57-68.82c-2.01-8.12-4.25-16.2-5.71-24.44l.76-1.42c3.32,3.03,4.8,11.91,6.36,16.46l4.86,13.16c8.29,24.36,14.8,49.44,24.37,73.38,2.91,7.28,6.5,13.87,9.78,20.92l-12.55-1.17-.28-.26c-8.27-.94-16.28-2.37-24.62-1.54l-.27-.32c-34.64-33.08-72.51-65.73-113.69-90.04-27.73-16.37-63.4-34.68-96.16-31.53-15.43,1.48-30.52,6.13-46.02,7.78-7.09.76-14.06.83-21.18.78-.92,0-6.03-.41-6.57-.06-.81.52-2.45,3.45-3.13,4.39-5.57,7.75-13.2,20.16-22.85,22.57-13.26,3.3-33.94-5.98-44.98-12.75,11.87,3.45,27.66,9.62,40.09,6.75,10.48-2.42,15.9-12.18,21.23-20.81-31.42-4.79-63.29-19.58-86.74-41.72,6.49,3.15,12.53,7.42,18.93,10.81,18.47,9.8,37.68,15.69,58.24,18.71,5.82.09,11.54.85,17.41.74,11.92-.22,23.78-2.15,35.6-3.66Z"/>
      <path class="cls-9" d="M149.09,475.69l2.62,2.94c-1.98,2.29-19.32,3.03-22.57,3.23-7.97.5-16.08.48-24.04-.22-2.79-.25-5.64-.23-8.18-1.56l-.84-1.48c5.82.09,11.54.85,17.41.74,11.92-.22,23.79-2.15,35.6-3.66Z"/>
      <path class="cls-17" d="M340.2,523.66c14.95,8.86,29.17,19.42,43.24,29.65l22.24,16.79c3.19,2.44,7.38,6.59,11.09,7.67l7.81,23.15c-19.29-12.82-36.06-30.23-53.85-45.15l-13.93-10.93c-2.67-2-5.67-3.81-7.95-6.27-.15-3.61-5.09-9.65-7.38-12.34-.72-.85-1.06-1.42-1.29-2.56Z"/>
      <path class="cls-13" d="M138.87,451.45c9.05,4.4,19.33,9.84,26.33,17.28,25.03-4.58,48.7-4.22,73.24,2.98l12.74,4.28c2.04.76,4.41,2.06,6.57,2.09,1.15,2.91,6.01,4.31,8.71,5.49,3.21,1.4,6.61,3.2,10,3.96,4.25,1.24,8.42,3.89,12.4,5.87,14.82,7.35,28.77,15.79,42.77,24.64,1.91,1.21,7.41,3.9,8.57,5.62.23,1.14.57,1.71,1.29,2.56,2.28,2.69,7.22,8.73,7.38,12.34-42.28-29.95-90.57-55.36-142.07-62.42-5.82-.8-11.7-.92-17.56-.71l-15.42,1.13c-1.17.11-4.31.79-5.32.5-2.65-.75-7.98-7.12-10.38-9.12-2.41-2-5.12-3.63-7.71-5.37-4.1-2.76-10.51-6-11.55-11.13Z"/>
      <path class="cls-18" d="M1201.54,362.88l-.5.5c-11.63,2.06-22.91,6.23-33.86,10.61-10.6,4.23-21.13,8.35-31.33,13.59l-36.6,20.71c-2.86.08-5.21,1.73-7.78,2.89l-9.88,4.28c-4.97,2.15-10.22,3.81-15.07,6.26l-59.56,25.29-.45.31c-6.25,4.19-15.89,6.45-22.96,9.13l-23.24,9.73c-15.38,6.84-30.06,15.22-44.5,23.89-9.35,5.61-18.79,11.04-27.7,17.38-22.67,16.15-42.53,35.25-59.72,57.33-6.95,8.92-12.76,18.43-18.02,28.48-.91,1.73-2.91,4.5-3.16,6.42-.06.49.02.9.09,1.38l8.85-2.48.6-1.13c3.12,1,8.09.44,11.51.52l19.34,1.18c15.7,1.57,33.32,6.08,48.95,3.41,12.28-2.1,25.36-8.51,37.1-12.93,8.63-3.25,18.21-8.02,27.19-9.68l.93-.17c5.02-.99,11.17.6,16.28,1.22,9.31,1.14,18.45,2.12,27.8.81,12.31-1.73,26.47-9.87,36.94-16.71,3.28-2.14,6.6-5.13,10.09-6.78,3.59-1.69,9.58-1.71,13.62-2.2,10.76-1.33,22.09-2.28,32.24-6.31-1.6,2-3.11,4.02-5.33,5.33-2.92,1.71-6.5,2.19-9.75,2.86l-16.93,2.64c-3.04.32-8.25.01-10.87,1.22-3.89,1.79-7.86,6.43-11.46,9.04-7.69,5.56-16.37,9.87-25.01,13.66-11.51,2.45-22.57,5.12-34.26,6.84-13.59,2-27.37,2.78-40.67,6.49-8.19,2.28-16.51,5.11-24.35,8.46-10.5,4.47-20.6,9.94-31.91,12.01-16.74,3.07-34.09,1.53-51.03,1.69-16.36.15-34.3,2.56-49.47,8.92-7.58,3.17-14.12,8.37-20.48,13.55-10.2,8.29-20.39,17.81-31.56,24.68l-14.8,11.88c-.15-3.6.07-7.19.78-10.73.39-1.93,1.33-4.09,1.22-6.06l-.06-.73c16.27-20.15,38-35.3,54.54-55.36,4.05-4.92,8.22-9.84,11.63-15.25,11.26-17.82,19.09-36.04,34.5-50.92,14.05-13.55,29.38-26.06,45.4-37.09l11.64-7.2c1.68-.94,4.26-1.94,5.71-3.13.78-.64,1.55-2.76,1.96-3.73,2.11-5.01,3.58-10.25,5.42-15.36l7.05-17.68c7.65-18.19,18.69-34.13,24.56-53.27l1.38.49c-1.49,7.45-4.21,14.78-6.58,21.97-.92,2.8-2.59,6.39-2.76,9.3,20.1-12.1,43.59-22.38,66.06-28.79-23.3,12.78-48.08,21.88-69.65,38.05-7.44,5.57-11.33,27.84-12.9,37.37l.35.3,83.11-32.24c3.08-1.51,7.63-4.07,9.23-7.22,1.07-2.1,1.05-5.54,1.3-7.87l2.07-13.89c1.17-6.16,2.88-12.54,4.99-18.43l.2-.55c.68-5.22,3.34-16.39,1.55-21.07.93-.67,1.71-1.46,2.54-2.27l.03-1.77.11-.4.2-.66c.58-1.99,1.11-3.4,2.33-5.07,1.31,1.81,1.83,3.03,4.16,3.48l1.53.12c.7-.05,2.34-.17,2.86-.63.82-.72,1.97-3.45,2.6-4.47l6.9-10.56c13.51-19.67,28.28-35.28,49.67-45.94l.97.46c-15.73,8.77-29.97,26.15-40.18,40.91-3.79,5.48-7.09,11.73-11.36,16.79l-1.16.36-1.04,2.88c-.35,1.18-.89,1.89-1.63,2.85.44.45.8.96,1.37,1.22v.67c-3.19,1.88-3.9,4.43-5.55,7.72-3.76,7.5-6.61,15.24-8.78,23.37-2.86,10.73-3.73,22.73-3.92,33.83,7.87-4.45,17.01-7.54,25.3-11.16l57.05-26.17c7.53-3.76,15.35-7.27,22.48-11.77,5.08-21.81,7.87-39.27-4.87-59.29-3.19-5.01-8.35-9.77-10.94-14.94,2.81,2,5.19,5.03,7.52,7.6,7.01,7.78,14.12,17.11,16.45,27.68l.23,1.05c2.4,10.76,1.75,21.22.53,32.06,25.93-13.69,52.83-25.59,82.57-25.02Z"/>
      <path class="cls-15" d="M1014.9,376.26c-.16.8-1.32,1.67-1.56,2.72l-.11,1.28-1.25.17-.98-.82c-1.86,1.25-2.23.17-3.91,2.32.04,1.82.36,4.07-.56,5.67.14,1.23.25,2.35.66,3.53-1.37,3.36-2.73,6.77-4.75,9.78l-.44.09c.68-5.22,3.34-16.39,1.55-21.07.93-.67,1.71-1.46,2.54-2.27l.03-1.77.11-.4.2-.66c.58-1.99,1.11-3.4,2.33-5.07,1.31,1.81,1.83,3.03,4.16,3.48l1.53.12c.1.7.55,2.29.44,2.91Z"/>
      <path class="cls-7" d="M1006.13,375.89l.11-.4.2-.66c.58-1.98,1.11-3.4,2.33-5.07,1.31,1.81,1.83,3.03,4.16,3.48l1.53.12c.1.7.55,2.29.44,2.91-.16.8-1.31,1.67-1.56,2.72-2.02.38-3.88.37-5.93.31l-1.31-1.63.03-1.77Z"/>
      <path class="cls-21" d="M1004.01,444.68l-3.4,2.28-.81-.33c.42-.79,2.04-2.63,2.2-3.33.64-2.77.23-6.93.38-9.89.4-8.14,1.22-15.97,3.34-23.86,1.07-3.98,14.25-32.27,16.37-33.53.44.45.8.96,1.37,1.22v.67c-3.19,1.88-3.9,4.43-5.55,7.72-3.75,7.5-6.61,15.24-8.78,23.37-2.86,10.73-3.73,22.73-3.92,33.83-.4.57-.94,1.21-1.2,1.85Z"/>
      <path class="cls-4" d="M1002.21,448.16c1.91-1.34,2.48-1.15,4.74-1.17l-.45.31c-6.25,4.19-15.89,6.45-22.96,9.13l-23.24,9.73c-15.38,6.84-30.06,15.21-44.5,23.89-9.35,5.61-18.79,11.04-27.7,17.38-22.67,16.15-42.53,35.25-59.72,57.33-6.95,8.92-12.76,18.43-18.02,28.48-.91,1.73-2.91,4.5-3.16,6.42-.06.49.02.9.09,1.38l-4.73,5.04c16.8,0,32.72,1.03,49.42,3.04,5.05.61,10.01.77,14.99,1.97-4.39.41-8.1-.21-12.44-.4-7.91-.35-15.83-.73-23.74-.48-9.35.3-18.55,1.93-27.6,4.27-3.3.85-7.2,1.57-10.25,3.14-4.24,2.17-7.89,6.13-11.65,9.06l-43.57,35.49-.05.09c-2.65,2.13-5.2,4.33-8.24,5.87,17.44-16.66,37.19-32.51,52.25-51.47,9.25-11.65,14.29-25.33,22.42-37.61,12.35-18.63,27-33.79,43.44-48.56,16.13-14.5,33.32-27.65,52.14-38.3l39.68-20.03c10.57-5.02,20.94-10.18,31.88-14.34l25.39-8.2c1.85-.59,3.02-.19,5.01-1.17l.58-.3Z"/>
      <path class="cls-22" d="M423.43,536.9l-.14.84,44.86,78.88c2.52,3.72,4.08,4.2,8.24,5.85-2.98.26-6.05-.74-8.89-1.59-6.44-1.92-12.56-4.58-18.9-6.75-11.35-3.89-23.94-5.45-35.73-7.31h-.13c-3.64-.27-11.21-.15-13.56-2.77,8.33-.83,16.35.6,24.62,1.54l.28.26,12.55,1.17c-3.28-7.05-6.87-13.64-9.78-20.92-9.57-23.94-16.08-49.02-24.37-73.38l-4.86-13.16c-1.55-4.55-3.04-13.43-6.36-16.46l-.76,1.42-4.37-18.12.41.46c.98,1.14,1.72,1.87,1.92,3.44.62-1,.59-1.85.65-3,.82,1.3,1.17,2.89,1.63,4.35l.65-2.02.65.55.44-.37c-1.55-6.12-6.82-14.92-10.51-20.19-3.64-5.21-12.81-12.28-13.1-18.79l12.37,12.62c.56,2.4,2.36,4.71,4.37,6.03-2.99-11.36-4.52-23.25-6.77-34.8-1.71-8.78-4.41-18.01-5.18-26.9l1.03-.6-2.12-6.12c-.56-1.57-.56-2.36-.25-4l.99.06c.85,1.14,1.17,1.83,1.44,3.23.15.78.33,1.26.61,1.97.42,1.05.46,1.78.39,2.93l.37.56c.74,1.22,1.16,2.02.94,3.44l.31.71c.42,1.08.44,1.82.49,2.96l1.08,1.36.44-.06c1.76,4.93,2.65,10.25,3.88,15.34l6.48,26.76c2.51,10.22,6.39,20.86,7.85,31.25l13.77,39.86c1.26,3.33,2.35,8.22,4.74,10.77,6.08-7.94,12.61-15.47,19.7-22.48,5.04-4.99,11.53-10.12,15.71-15.8,4.79-6.51,8.07-15.03,12-22.19-.09,2.36-1.49,5.2-2.28,7.43l-6.88,17.16,18.67-16.42.47.39-10.29,10.34c-2.59,2.83-6.34,8.6-9.65,10.26l-.89.41-.17,1.85c13.07-4.38,25.41.79,37.11,6.85l5.68,2.97-.76.37c-11.37-4.49-23.75-10.47-36.1-7.33-13.38,3.41-21.94,13.86-28.47,25.62-3.41,6.14-5.47,12.29-6.52,19.25Z"/>
      <path class="cls-19" d="M473.48,466.3l-10.29,10.34c-2.59,2.83-6.34,8.6-9.65,10.26l-.89.41.03-1.31c-3.72,1.77-6.77,5.75-9.54,8.8-5.48,6.02-10.98,12.02-15.78,18.64-2.87,3.96-5.71,9.56-9.35,12.63l-1.91-7.86c6.08-7.94,12.61-15.47,19.7-22.48,5.04-4.99,11.53-10.12,15.71-15.8,4.79-6.51,8.07-15.03,12-22.19-.09,2.36-1.49,5.2-2.28,7.43l-6.88,17.16,18.67-16.42.47.39Z"/>
      <path class="cls-21" d="M495.27,498.98l-.76.37c-11.37-4.49-23.75-10.47-36.1-7.33-13.38,3.41-21.94,13.86-28.47,25.62-3.41,6.14-5.47,12.29-6.52,19.25l-.14.84c-2-1.25-4.56-9.17-5.29-11.66,3.64-3.07,6.48-8.67,9.35-12.63,4.8-6.62,10.3-12.62,15.78-18.64,2.77-3.05,5.82-7.03,9.54-8.8l-.03,1.31-.17,1.85c13.07-4.38,25.41.79,37.11,6.85l5.68,2.97Z"/>
      <path class="cls-17" d="M397.58,467.58c-.92-.26-2.5-3.84-3.11-4.86-2.32-3.87-5.67-10.28-8.87-13.24-2.99-11.36-4.52-23.25-6.77-34.8-1.71-8.78-4.41-18.01-5.18-26.9l1.03-.6-2.12-6.12c-.56-1.57-.56-2.36-.25-4l.99.06c.85,1.14,1.17,1.83,1.44,3.23.15.78.33,1.26.61,1.97.42,1.05.46,1.78.39,2.93l.37.56c.74,1.22,1.16,2.02.94,3.44l.31.71c.42,1.08.44,1.82.49,2.96l1.08,1.36.44-.06c1.76,4.93,2.65,10.25,3.88,15.34l6.48,26.76c2.51,10.22,6.39,20.86,7.85,31.25Z"/>
      <path class="cls-23" d="M468.16,616.61c-3.84.02-7.17-1.62-10.78-2.79-3.23-1.05-6.39-1.82-9.46-3.35l1.62-1.4.52-.37c-1.12-4.42-3.5-8.68-5.34-12.83l-16.99-36.82-21.2-51.7c-4.59-12.11-8.33-25.32-13.78-36.94l-.29-.6c-1.55-6.12-6.82-14.92-10.51-20.19-3.64-5.21-12.81-12.28-13.1-18.79l12.37,12.62c.56,2.4,2.36,4.71,4.37,6.03,3.2,2.95,6.56,9.37,8.87,13.24.6,1.01,2.19,4.59,3.11,4.86l13.77,39.86c1.26,3.33,2.35,8.22,4.74,10.77l1.91,7.86c.73,2.49,3.29,10.41,5.29,11.66l44.86,78.88Z"/>
      <path class="cls-17" d="M476.4,622.47c-2.98.26-6.05-.74-8.89-1.59-6.44-1.92-12.56-4.58-18.9-6.75-11.35-3.89-23.94-5.45-35.73-7.31h-.13c-3.64-.27-11.21-.15-13.56-2.77,8.33-.83,16.35.6,24.62,1.54l.28.26,12.55,1.17c-3.28-7.05-6.87-13.64-9.78-20.92-9.57-23.94-16.08-49.02-24.37-73.38l-4.86-13.16c-1.55-4.55-3.04-13.43-6.36-16.46l-.76,1.42-4.37-18.12.41.46c.98,1.14,1.72,1.87,1.92,3.44.62-1,.59-1.85.65-3,.82,1.3,1.17,2.89,1.63,4.35l.65-2.02.65.55.44-.37.29.6c5.46,11.62,9.2,24.84,13.78,36.94l21.2,51.7,16.99,36.82c1.84,4.15,4.22,8.41,5.34,12.83l-.52.37-1.62,1.4c3.07,1.52,6.23,2.3,9.46,3.35,3.61,1.17,6.93,2.81,10.78,2.79,2.52,3.72,4.08,4.2,8.24,5.85Z"/>
      <path class="cls-5" d="M1263.69,625.86c-7.25.81-15.97-.6-23.24-1.19-23.93-1.94-47.54-6.13-70.43-13.63l-35.53-12.82c.7,5.9,8.15,10.66,10.03,16.16l18.76,22.18.03-.03c9.25,8.34,19.32,15.63,30.09,21.78l16.11,8.26c-5.17-.58-10.79-2.72-15.69-4.52-22.12-8.14-40.13-22.15-56.01-39.68-8-8.83-16.52-20.49-26.78-26.44-9.1-5.28-23.36-3.32-33.45-2.71-21.28,1.3-42.65,4.41-63.66,8.09-19.14,3.35-38.18,7.09-56.94,12.22l-8.12,2.8,31.13,18.07c15.44,12.18,33.07,21.42,47.85,34.67,10.69,9.58,19.35,21.35,29.1,31.89,12.6,13.63,25.85,25.79,39.48,38.29,4.14,5.69,8.44,9.1,15.27,10.62,4.57,4.5,16.58,13.91,22.85,13.96,10.75,7.88,21.91,14.57,34.18,19.68,3.93,1.64,8.21,2.64,12.04,4.32-4.59.44-9.37-.82-13.87-1.73-31.41-6.4-59.81-27.22-83.95-47.76l-30.36-26.71c7.56,23.18,16.49,46.23,20.83,70.33-3.34-6.03-5.66-13.13-8.38-19.51l-17.1-41.63-5.92-17.35c-.6-1.97-1.37-6.47-2.52-8.04-1.57-2.15-4.81-4.4-6.84-6.2-22.75-20.11-50.35-35.52-76.9-49.75,3.8,7.45,10.61,17.46,17.15,22.47,6.35,4.86,13.74,8.62,18.87,14.98l-13.94-7.51c-2.41,4.76-5.39,9.47-3.53,14.99,3.07,9.09,16.4,17.09,23.91,22.29-7.98-2.07-22.71-12.63-26.75-20.19-1.59-2.97-1.77-6.21-.72-9.39.99-2.99,2.41-5.8,3.89-8.56-9.41-6.91-15.58-15.55-22.38-24.99-2.2-3.04-4.78-7.81-7.83-9.99-6.69-4.77-17.27-7.13-24.99-9.93-9.59,2.05-19.23,3.97-28.99,4.97-31.4,3.23-61.81,2.69-91.83,14.48-9.83,3.86-18.04,7.14-23.98,16.43l-29.52,46.79c-19.61,30.01-39.69,59.14-52.56,93.04l-1.53,2.07-1.03-.63c-2.39-5.02-3.11-11.56-4.2-17.02l-6.17-31.29-18.49-98.36-12.3-67.15c-.52-3.47-1.12-7.01-1.65-10.58-.09-.6-.18-1.19-.26-1.79-.09-.6-.17-1.19-.25-1.79-.04-.3-.08-.6-.12-.9-.08-.6-.15-1.2-.22-1.79-.18-1.49-.33-2.99-.46-4.48-.05-.6-.09-1.2-.13-1.79-.14-2.08-.2-4.15-.18-6.2,0-.29,0-.57.02-.86,0-.04,0-.09,0-.13,0-.07,0-.15,0-.22,0-.07,0-.14,0-.21h0c0-.22.02-.45.03-.67,0-.1,0-.19.01-.29.01-.23.02-.46.04-.69.2.23.39.45.57.67h0s.03.04.05.07c.06.08.12.15.17.23.04.05.08.1.11.16.03.04.06.08.09.12.03.04.06.08.08.12.04.05.07.11.11.16.04.05.07.11.1.16.03.04.05.09.08.13.04.07.08.13.12.2.03.06.07.12.1.18.02.03.03.07.05.1.03.06.06.12.09.18.15.31.28.64.4.99.03.09.06.18.09.28,3.44,12.02,4.3,25.66,6.43,38.03,3.93,22.83,8.45,46.78,15.08,68.93l.18.61c3.64-27.03,11.49-53,27.95-74.98,15.87-21.19,38.89-35.52,58.71-52.41l59.98-56c11.92-11.42,24.69-22.2,35.61-34.62,5.66-6.44,10.52-13.48,15.81-20.23l22.81-28.98,23.72-35.73,24.36-37.01,22.86-36.5c7.77-11.55,16.45-22.7,25.29-33.41,15.1-18.29,32.41-36.27,53.24-47.64,11.48-6.27,23.88-9.68,36.37-13.04,11.03-2.97,22.08-5.85,33.33-7.83l34.73-5.52c7.19-1.38,14.49-2.8,21.52-4.92l14.55-4.73c2.48-.83,4.91-1.96,7.53-2.18l1.26,1.23c-11.38,5.7-23.31,9.88-35.7,12.55-4.6.99-10.2,1.07-14.52,2.5,9,3.66,17.9,10.72,27.36,12.49,3.44.65,7.23.2,10.67-.28.79-.11,1.46-.09,2.24.02-3.12,1.17-6.61,2.79-9.95,3.06-10.85.85-22.9-6.04-32.92-9.78-2.9-1.08-6.35-2.71-9.45-3.04-3.43-.37-7.95.88-11.4,1.52l-21.62,4.18c-17.63,3.51-34.31,7.72-50.37,16.21-27.73,14.65-49.84,40.8-67.94,66.26-8.96,12.6-17.64,25.72-25.24,39.24,3.68-.36,8.24-3.19,11.88-4.48l16.16-4.89,24.54-5.94c4.54-1.1,9.79-1.96,13.81-4.46,7.42-4.63,12.61-14.43,17.54-21.54,17.59-25.35,38.9-51.07,68.9-60.91l.37.85,1.94,1.24-1.74,2.6c-20.74,11.83-37.76,29.99-49.75,50.92l28.49,3.48c12.03,1.12,24.85,1.63,36.88.22,13.09-1.53,26.34-5.14,39.03-8.72,8.81-3.03,17.33-6.52,25.46-11.17,3.97-2.27,9.68-7.34,13.98-8.05-39.2,34.16-86.36,47.67-137.3,43.49l-15.93-1.89c-5.45,8.83-10.71,19.23-18.82,25.76-6.21,5.01-15.45,6.86-22.99,9.05l-26.05,8.04c-12.76,4.35-26,9.78-37.92,16.17-3.45,1.85-8.43,3.86-11.22,6.59-2.57,2.51-4.34,7.52-6.31,10.67l-19.33,30.5c2.37.03,5.65-1.85,7.92-2.77l12.52-4.48c26.49-7.98,54.73-14.68,82.48-12.79l-.03,2.07h1.27s-.03,1.78-.03,1.78c-.83.8-1.61,1.59-2.54,2.27-20.19,2.42-39.58,5.95-58.82,12.78-5.53,1.96-11.91,4.05-16.93,7.13-.46,1.06-.9,2.06-1.23,3.17l-1.38-.49-.31-1.62-38.35,19.44c-2.85,1.84-5.17,6.03-7.15,8.8l-10.16,13.01-42.68,46.54-60.18,58.43-27.45,23.14c-8.5,7.08-17.04,14.23-23.43,23.45-12.15,17.55-17.39,42.64-21.25,63.49l-5.41,46.13c1.91-.42,5.38-6.99,6.8-9.06,8.06-11.72,17.34-22.54,27.16-32.74l.06.73c.11,1.97-.83,4.13-1.22,6.06-.71,3.54-.93,7.12-.78,10.73l14.8-11.88c11.18-6.87,21.36-16.38,31.56-24.68,6.36-5.17,12.9-10.37,20.48-13.55,15.17-6.36,33.11-8.76,49.47-8.92,16.95-.16,34.29,1.38,51.03-1.69,11.31-2.07,21.42-7.54,31.91-12.01,7.84-3.34,16.15-6.18,24.35-8.46,13.3-3.7,27.07-4.49,40.67-6.49,11.69-1.72,22.75-4.39,34.26-6.84,8.65-3.78,17.32-8.1,25.01-13.66,3.6-2.61,7.57-7.24,11.46-9.04,2.62-1.2,7.83-.9,10.87-1.22l16.93-2.64c3.25-.67,6.83-1.15,9.75-2.86,2.22-1.31,3.73-3.33,5.33-5.33,4.2-6.98,6.14-17.24,7.98-25.22.73-3.15,1.26-6.82,2.55-9.75l8.34-21.17-.62-1.17c2.34-1.39,3.33-4.88,4.48-7.38,3.25-7.02,6.48-16.75,11.42-22.52-6.51,20.08-13.96,38.95-17.97,59.85-3.96,3.06-3.8,14.49-4.51,19.57-.52,3.73-1.38,7.45-2.17,11.13,1.9.19,4.85-1.18,6.7-1.76,19.65-6.13,38.57-16.24,56.04-27.15,5.76-3.59,10.91-8.74,16.96-11.68l1.84.83c-23.97,21.01-49.86,37.8-80.21,47.43-10.96,3.48-22.56,4.99-33.94,6.35-6.06.72-12.92.4-18.62,2.68-4.7,1.87-8.64,5.65-12.37,9.01,9.86-2.59,20.18-2.85,30.3-3.03,13.44-.23,27.42-.06,40.66,2.51,17.45,3.39,35.6,11.33,52.2,17.78,20.66,8.02,41.4,15.78,62.67,21.93l33.23,7.83Z"/>
      <path class="cls-23" d="M1139.88,613.42c-1.14-.62-3.74-4.83-4.67-6-3.19-4.03-6.61-7.77-10.12-11.49,2.13.3,4.39.48,6.34,1.45.79.4,1.36.68,2.26.78l.8.07c.7,5.9,8.15,10.65,10.03,16.16l18.76,22.18-.52-.05c-3.33-.49-5.58-3.07-7.9-5.34-5.65-5.53-10.41-11.24-14.97-17.75Z"/>
      <path class="cls-9" d="M901.97,393.86c2.37.03,5.65-1.85,7.92-2.78l12.52-4.48c26.49-7.99,54.73-14.68,82.48-12.79l-.03,2.07c-4.54,2.41-13.26,1.61-18.62,2.27-7.52.93-15.02,2.15-22.42,3.82-16.73,3.77-33.48,9.44-49.37,15.94l-22.14,9.68,9.66-13.73Z"/>
      <path class="cls-9" d="M1054,269.7l28.49,3.49c12.03,1.12,24.85,1.63,36.88.22,13.09-1.53,26.34-5.14,39.03-8.72-.4.64-.91,1.81-1.42,2.31-1.05,1.02-4.42,1.92-5.83,2.48-9.98,3.9-20.58,7.28-31,9.66-11.54,2.63-23.35,3.57-35.13,4.15-12.19.6-25.13.69-37.2-1.45,1.93-4.02,3.69-8.46,6.18-12.13Z"/>
      <path class="cls-23" d="M1044.62,578.83c9.85-2.59,20.18-2.85,30.3-3.03,13.44-.23,27.42-.06,40.67,2.51,17.46,3.39,35.6,11.33,52.2,17.78,20.66,8.02,41.4,15.78,62.67,21.93-6.96,1.11-14.94-2.2-21.68-3.96-25.77-6.74-50.24-17.53-75.66-25.23-23.27-7.05-52.44-9.81-76.43-6.36-7.14,1.03-14.26,3.14-21.26,4.92,2.68-3.08,5.77-6.39,9.2-8.55Z"/>
      <path class="cls-13" d="M950.36,316.31c3.68-.36,8.24-3.19,11.88-4.48l16.16-4.89,24.54-5.94c4.54-1.1,9.79-1.95,13.81-4.46,7.42-4.63,12.61-14.43,17.54-21.54,17.59-25.35,38.89-51.08,68.9-60.91l.36.85c-16.04,8.92-31.11,20.6-42.58,35.25-7.28,9.29-12.87,19.48-18.86,29.64-6.31,10.71-12.99,23.87-24.13,29.88-2.03,1.82-4.15,3.2-6.65,4.23-7.61,3.14-15.89,4.99-23.71,7.62l-28.04,9.84c-5.16,1.89-13.01,6.05-18.4,5.72l-.51-.04c-1.31.62-2.31,1.1-3.79,1.14,2.77-5.71,6.75-11.31,10.2-16.65,1.09-1.69,3.05-3.24,3.28-5.28Z"/>
      <path class="cls-17" d="M940.66,337.09c3.55-2.26,7.55-3.91,11.31-5.81,10.84-5.5,22.14-10.21,33.76-13.69,10.58-3.17,21.51-5.29,32.24-7.88-2.03,1.82-4.15,3.2-6.65,4.23-7.61,3.14-15.89,4.99-23.71,7.62l-28.04,9.84c-5.16,1.89-13.01,6.05-18.4,5.72l-.51-.04Z"/>
      <path class="cls-17" d="M1019.38,584.53c-2.91,3.08-7.1,4.3-10.99,5.64-17.15,5.91-35.83,6.47-53.46,10.26-11.13,2.39-21.69,6.31-32.06,11.05-5.12,2.35-10.65,4.78-15,8.44-7.04,5.94-53.81,3.84-65.89,4.87-10.58.91-20.74,3.17-30.99,5.9-11.64,3.1-24.96,7.48-34.18,15.7-3.5,3.12-6.18,7.21-8.89,11.04l-17.03,26.51-17.85,26.21-26.22,36.34-12.33,14.75c-2.38-18.86-7.18-38.84-5.65-57.91,1.91-.42,5.38-6.99,6.8-9.06,8.06-11.72,17.34-22.54,27.16-32.74l.06.73c.11,1.97-.83,4.13-1.22,6.06-.71,3.54-.93,7.12-.78,10.73l14.8-11.88c11.18-6.87,21.36-16.38,31.56-24.68,6.36-5.17,12.9-10.37,20.48-13.55,15.17-6.36,33.11-8.76,49.47-8.92,16.95-.16,34.29,1.38,51.03-1.69,11.31-2.07,21.42-7.54,31.91-12.01,7.84-3.34,16.15-6.18,24.35-8.46,13.3-3.7,27.07-4.49,40.67-6.49,11.69-1.72,22.75-4.39,34.26-6.84Z"/>
      <path class="cls-2" d="M628.04,918.02c-.26-13.93-2.19-27.73-1.52-41.67-3.14,10.44-3.93,21.01-4.89,31.83-1.17,13.32-2.57,27.09-6.82,39.8-4,11.98-10.88,23.42-18.15,33.6-2.13-.73-4.05-1.94-6.01-3.06,1.06-8.13,3.17-16.13,4.54-24.22l9.78-56.89c2.53-12.78,5.81-25.02,7.23-38.04,1.45-13.35,3.1-28.53,1.41-41.9-1.41-11.11-4.85-20.63-4.76-32.1.07-9.07.95-18.13,2.92-26.99,1.47-6.59,3.7-12.96,4.03-19.77.81-16.77-3.95-32.17-4.7-48.64-.73-15.81,1.82-31.5,1.15-47.22-.69-15.92-3.99-32.21-8.05-47.57l-6.94-24.23c-3.72-11.38-8.66-22.16-12.08-33.64-.68-2.29-2.39-6.74-1.8-9.08l1.23,4.92c.11-1.02.35-2.14-.04-3.11-.33-.82-.24-.19-.27-1.27-.02-.7.02-1.45-.17-2.13-.25-.89-.49-1.27-.57-2.25-.15-1.83-.31-5.41-.96-7.03-.29-.73-.23-.31-.26-1.23l-.17-2.84c-.51-2.33-.49-5.13-1.3-7.34-.72-1.94-1.15-5.04-1.28-7.15l-.03-.52-.65-.67c.03-.98.16-1.96-.21-2.88-1.37-3.41-.86-8.48-1.74-12.12-.55-2.29-.74-4.49-1.31-6.67-.32-1.23.31-2.58-.22-3.9-1.22-3.03-.2-7.77-1.33-10.83-.34-.93-.27-.35-.27-1.55,0-1.94-.4-2.72-.79-4.4-.36-1.52.35-3.07-.24-4.67-1.08-2.92-.19-7.19-1.28-9.9-1.28-3.17-.17-8.59-1.24-12-.81-2.6.19-5.57-.5-7.78-.67-2.16-.63-3.54-.62-5.92,0-1.69.3-4.2-.27-5.75-.92-2.49-.2-5.69-.27-8.32l-.64-15.03c-.38-6.14-.21-12.39-.2-18.56,0-2.28-.42-5.77.26-7.89.49-1.51.7-3.15.53-4.74l-.1-.82c.97-1,.65-1.32.65-2.67.94-.97,1.32-3.33,2.49-4.81,2.04-2.58,5.3-4.37,7.71-6.66.39-.37,1.64-1.37,1.84-1.79.9-1.87-.25-7.01.65-9.77l.33-.98c.24-.84.36-1.43.72-2.26,2.03-4.57,3.84-8.26,6.58-12.43.25-1.81.86-3.03,1.84-4.52,3.74-5.75,6.51-13.03,10.73-18.36l.5-.61-1.09-.27c-.34.72-.67,1.2-1.17,1.83-7.89,9.81-15.58,18.99-22.03,29.9,1.68-15.16,2.99-30.99,2.26-46.26-.62-12.95-2.66-26.09-5.23-38.77l-6.47-28.3c-4.09-17.89-7.69-37.58-15.59-54.14-12.72-22.34-30.63-41.3-50.18-57.44l-11.76-8.91c-.52-1.36-7.48-6.24-9-7.48-6.84-5.59-13.17-11.58-19.36-17.92l-3.53.69c11.77,12.07,24.61,25.9,38.25,35.69,6.26,5.96,13.29,11.03,19.45,17.13,7.53,7.44,13.57,16.26,19.67,24.92,5.46,7.76,11.43,15.62,14.68,24.67,2.2,6.13,3.38,12.44,4.83,18.78l5.72,23.62c3.87,16.05,8.83,33.88,9.39,50.41.39,11.44-3.3,22.67-5.55,33.8l-8.11,44.24c-2.9,16.52-6.52,34.46-5.59,51.29l.39.38c-.34,3.12.86,6.03,1.21,9.12l1.75,19.81-40.6-56.64c-21.77-25.18-56.87-32.29-88.01-36.27l-31.06-3.3-.51-.72c3.57-.06,9.76.68,12.48-1.67-.86-.58-1.78-.87-2.74-1.23l-.3-.04-86.07-118.88c-1.34-2.09-2.92-3.91-4.51-5.81-.67-1.63-1.44-3.07-2.34-4.58-.99-3.52-3.06-6.99-4.65-10.28-3.82-7.93-7.77-15.42-12.87-22.59-3.05-2.37-5.53-5.78-8.62-8.34l-.98,1.16,20.42,35.96,19.27,47.16-.13.66-26.84-7.76c-22.01-6.43-42.46-13.2-61.99-25.83-10.35-6.69-19.14-14.51-28.08-23.02-9.43-11.01-15.74-22.11-22.13-35.15,4.41,16.13,14.18,35,26.13,46.67,14.55,17.93,35.67,30.27,56.02,39.95,5.23,2.48,11.03,4.2,16.08,6.91,1.17.63,1.93,1.62,3.08,2.23,4.06-1.46,34.44,11.53,40.45,14.45,11.64,5.65,20.56,16.07,28.68,26.03l.38,2.17c-.46,15.46-1.51,31.3,1.22,46.59l.34,1.48-.47.77,9.19,16.36-1.27.78,2.3,3.93c-3.04-.39-6.18-2.66-8.59-4.5-1.82.06-3.67-1.06-5.33-1.77l-13.54-5.88-17.87-6.57c-27.64-9.72-56.5-16.92-85.59-19.93l-3.28-1.98c-2.39.34-3.86.24-6.13-.61-7.38-10.83-15.97-21.76-21.06-34.01-.49-1.17-.66-1.02-1.71-1.59,3.51,12.56,9.54,23.13,15.18,34.69-36.44-5.04-72.24-13.78-106.36-27.95l-49.09-25.72c34.7,29.63,74.18,51.15,117.87,62.91l58.65,12.98c-7.76,3.44-15.57,6.94-22.77,11.5-19.07,12.09-37.17,28.98-60.95,29.18-4.97.04-10.04-1.01-14.88-2.08,11.46,6.46,26.44,5.79,38.67,2.14,14.72-4.4,27.05-13.19,41.13-18.92,14.35-5.84,32.82-12,48.33-12.24,10.57-.17,20.81,3.19,30.8,6.4,21.17,6.79,42.64,15.65,62.1,26.56,2.52,1.41,4.85,2.43,5.87,5.34,2.79,3,3.75,8.9,4.87,12.87l1.03-.6-2.12-6.12c-.56-1.57-.56-2.36-.25-4l.99.06c.85,1.14,1.17,1.83,1.44,3.23.15.78.33,1.26.61,1.97.42,1.05.46,1.78.39,2.93l.37.56c.74,1.22,1.16,2.02.94,3.44l.31.71c.42,1.08.44,1.82.49,2.96l1.08,1.36.44-.06-.13-.76-4.34-16.97c17.7,9.54,34.55,20.45,50.67,32.57,20.91,15.72,40.36,33.67,59.51,51.56,31.67,29.58,63.5,59.48,86.56,96.94,8.46,13.74,14.36,28.81,19.05,44.27,4.83,15.92,8.56,32.39,11.48,48.78,1.94,10.88,5.54,26.47.25,36.69-1.01,1.94-2.24,3.15-3.95,4.45-1.04.84-.82.77-1.09,2-1.51,1.45-3.01,3.09-5.05,3.7l-.7.2-.88.29c-7.32,2.32-14.44.17-21.3-2.54-19.42-7.65-34.05-21.76-50.65-33.99-11.46-8.44-23.44-16.89-35.91-23.7-23.77-12.99-51.12-21.35-77.94-23.9-22.24-2.11-45.04-.28-67.16,2.29-12.93,1.5-25.83,2.79-38.58,5.58-18.01,3.94-35.79,9.53-53.38,15.05-1.84,2.2-6.78,3.23-9.5,4.25l-.21,1.65.62.42.03,1.35c1.03.21,1.05.11,1.96-.33,1.44-.7,2.6-.48,4.07-.84,2.45-.6,5.04-1.74,7.5-2.33,1.19-.29,2.4-.07,3.56-.58,1.4-.61,3.43-1.13,4.94-1.44l2.42-.48,1.63-.33c1.52-.51,3.3-.47,4.7-1.08.86-.38.19-.2,1.3-.43l4.11-.82,1.63-.33c3.17-1.05,6.52-1.32,9.78-2,1.27-.26,3.39-.43,4.5-.91.95-.42,1.69-.22,2.67-.42,2.79-.58,7.25-2.15,10.01-1.01l.74.35c2.9-2.49,9.43-.76,12.9-2.43l.78-.4c1.27.21.68.21,1.95.03,2.99-.43,6.33-.2,9.21-.86,2.83-.65,6.04.04,8.72-.67,2.76-.73,4.8-.09,7.6.44,36.82-.72,76.77.54,110.7,17.1,18.06,8.82,33.58,21.3,47.96,35.42,28.81,28.31,54.39,59.83,75.9,94.26,7.32,11.72,14.72,23.75,19.14,36.99,3.62,10.85,4.69,23.32,4.89,34.76.56,31.74-5.1,63.79-15.35,93.7-4.63,13.49-9.86,26.35-17.68,38.26-4.72-.22-9.48-.64-14.17.08l-1.04.15c-9.38,1.41-13.92,8.9-22.05,12.2-6.36,2.58-13.33,1.63-20.04,2.09-13.95.97-27.23,11.35-38.66,18.83,10.88-3.28,22.05-7.78,33.56-7.56,8.84.17,17.89,2.14,26.72,1.05,8.9-1.1,16.29-5.86,25.56-6,6.05-.09,11.81,1.37,17.78,2.06,5.06.59,9.98.51,15.05.1,1.16.38,1.63.6,2.37,1.6l9.92-8.03c19.75-18,24.55-50.68,24.07-76.53ZM452.4,337.78c13.59,3.28,26.61,7.7,39.65,12.78,3.37,1.31,6.71,7.05,8.96,10.02,20.48,27.05,36.24,57.59,48.93,89.16l4.98,14.69c-2.97-.39-11.36-8.38-14.26-10.52-21.91-16.18-45.77-31.16-65.49-50.17-11.87-11.44-12.34-26.63-12.87-42.11-1.33,11.09-1.28,19.76,1.04,30.75-11.17-12.41-22.03-25.6-30.76-39.94l-9.19-15.58c-.39-.67-2.23-3.25-2.26-3.89-.03-.51.23-1,.34-1.5l30.91,6.31ZM366,336.22c-1.4-3.69-1.97-8.05-2.76-11.94-2.97-14.64-4.23-30.04-3.55-44.98,6.75,8.24,11.99,18.09,17.08,27.46l25.33,49.18c3.37,6.52,6.53,13.32,10.29,19.61l-.34.96-22.41-15.33c-5.27-3.43-10.87-6.67-15.7-10.73l-1.35-1.38c-2.18-4.13-4.94-8.48-6.59-12.84Z"/>
      <path class="cls-21" d="M381.56,364.32l16.41,9.22,3.47,3.9c-2.16-.31-4.12-.51-5.96-1.81l-3.28-2.01c-1.73-1.19-3.7-2.01-5.34-3.27l-.53-.43c-2.29-1.15-3.39-3.43-4.77-5.6Z"/>
      <path class="cls-15" d="M422.7,393.27c-4.16-2.5-7.89-5.57-11.8-8.44-3.13-2.3-6.75-4.61-9.46-7.39l-3.46-3.89c5.22.85,8.24,5.23,13.45,6.04.61-1.02.56-1.91.61-3.08l.34-.96,10.32,17.72Z"/>
      <path class="cls-17" d="M284.47,224.32c1.89-.25,3.8-.5,5.69-.17,5.71,1,30.78,8.9,33.66,7.12l.41-.86.13-.66.76,1.57c.81,1.93,1.07,3.37.27,5.27l.65,1.39c-2.95-.06-6.42-1.65-9.3-2.5-10.7-3.17-22.11-6.56-32.28-11.16Z"/>
      <path class="cls-23" d="M207.33,173.8c8.94,8.52,17.73,16.33,28.08,23.02,19.53,12.63,39.99,19.39,61.99,25.83l26.84,7.76-.41.86c-2.88,1.78-27.95-6.13-33.66-7.12-1.89-.33-3.81-.08-5.69.17-23.87-7.53-45.28-18.99-64.85-34.89-4.18-4.31-10.4-9.87-12.29-15.62Z"/>
      <path class="cls-17" d="M314.14,191.26c1.6,1.9,3.17,3.71,4.52,5.81l86.07,118.88c-2.79.58-6.26.29-9.13.33-6.28-8.24-10.13-18.61-16.44-27.06-4.63-6.19-10.32-11.73-15.26-17.71-19.12-23.14-36.84-46.95-48.49-75.04l-.4-.97c-.72-1.53-.78-2.55-.87-4.24Z"/>
      <path class="cls-22" d="M372.58,349.06c-1.09-.09-1.94-.45-2.96-.82-.72-2.02-1.67-3.61-2.88-5.35l-.45-.63-9.19-16.36.47-.77-.34-1.48c-2.74-15.29-1.68-31.13-1.22-46.59l.82,2.05,2.85.19c-.68,14.94.58,30.34,3.55,44.98.79,3.89,1.36,8.25,2.76,11.94,1.65,4.36,4.41,8.71,6.59,12.84Z"/>
      <path class="cls-21" d="M372.58,349.06c-1.09-.09-1.94-.45-2.96-.82-.72-2.02-1.67-3.61-2.88-5.35l-.45-.63-9.19-16.36.47-.77-.34-1.48c-2.74-15.29-1.68-31.13-1.22-46.59l.82,2.05,2.85.19c-.68,14.94.58,30.34,3.55,44.98.79,3.89,1.36,8.25,2.76,11.94,1.65,4.36,4.41,8.71,6.59,12.84Z"/>
      <path class="cls-14" d="M412.04,376.5c-.06,1.17,0,2.06-.61,3.08-5.21-.81-8.23-5.19-13.45-6.04l-16.41-9.22c-33.57-17.12-68.56-31.24-105.15-40.01-52.86-12.67-109.55-17.14-158.58-42.56-2.51-1.3-3.38-2.35-4.78-4.88,34.12,14.16,69.92,22.9,106.36,27.95-5.64-11.57-11.67-22.13-15.18-34.69,1.05.57,1.22.42,1.71,1.59,5.09,12.25,13.68,23.18,21.06,34.01,2.27.85,3.74.95,6.13.61l3.28,1.98c29.1,3.01,57.96,10.21,85.59,19.93l17.87,6.57,13.54,5.88c1.66.71,3.51,1.83,5.33,1.77,2.41,1.84,5.55,4.11,8.59,4.5l-2.3-3.93,1.27-.78.45.63c1.21,1.74,2.16,3.33,2.88,5.35,1.02.38,1.87.73,2.96.82l1.35,1.38c4.83,4.06,10.42,7.3,15.7,10.73l22.41,15.33Z"/>
      <path class="cls-23" d="M373.94,350.44c-1.55.69-2.88,1.1-4.54,1.4l-1.82-1.41c-5.61-4.77-13.27-6.76-19.63-10.48-4.97-2.91-11.64-4.43-17.12-6.21l-47.56-13.55-31.29-7.46c-4.39-1.03-12.32-1.36-15.57-4.41,29.1,3.01,57.96,10.21,85.59,19.93l17.87,6.57,13.54,5.88c1.66.71,3.51,1.83,5.33,1.77,2.41,1.84,5.55,4.11,8.59,4.5l-2.3-3.93,1.27-.78.45.63c1.21,1.74,2.16,3.33,2.88,5.35,1.02.38,1.87.73,2.96.82l1.35,1.38Z"/>
      <path class="cls-17" d="M555.25,465.3c5.63,19.43,7.45,37.74,8.2,57.9-9.11-13.68-21.42-25.97-33.08-37.37-25.25-24.68-53.15-47.03-77-73.11-23.19-25.36-40.01-56.56-55.74-87.14l15.47,3.98c6.43,11.07,12.88,22.13,20.27,32.58,4.82,6.81,10.34,13.11,15.46,19.69,8.93,11.48,17.44,22.39,28.08,32.34,7.99,7.47,16.94,13.73,25.44,20.54,6.93,5.55,13.85,10.74,21.42,15.34,3.2,1.95,6.22,4.12,9.76,5.43,4.56,1.69,10.27,6.26,14.29,9.13,1.54,1.1,4.09,3.37,5.96,3.03.4-1.42.28-1.56,1.48-2.33Z"/>
      <path class="cls-22" d="M555.25,465.3c-1.21.77-1.09.91-1.48,2.33-1.87.34-4.42-1.94-5.96-3.03-4.02-2.86-9.72-7.44-14.29-9.13-3.53-1.31-6.56-3.48-9.76-5.43-7.58-4.61-14.49-9.79-21.42-15.34-8.5-6.81-17.45-13.07-25.44-20.54-10.63-9.94-19.14-20.86-28.08-32.34-5.12-6.58-10.65-12.88-15.46-19.69-7.39-10.44-13.84-21.5-20.27-32.57,2.67.67,5.67,1.78,8.39,1.91-.11.5-.37.99-.34,1.5.04.65,1.87,3.22,2.26,3.89l9.19,15.58c8.73,14.34,19.59,27.53,30.76,39.94-2.32-10.99-2.37-19.66-1.04-30.75.53,15.48,1,30.67,12.87,42.11,19.72,19.01,43.58,33.99,65.49,50.17,2.9,2.14,11.28,10.14,14.26,10.52l.32.86Z"/>
      <path class="cls-23" d="M555.25,465.3c-1.21.77-1.09.91-1.48,2.33-1.87.34-4.42-1.94-5.96-3.03-4.02-2.86-9.72-7.44-14.29-9.13-3.53-1.31-6.56-3.48-9.76-5.43-7.58-4.61-14.49-9.79-21.42-15.34-8.5-6.81-17.45-13.07-25.44-20.54-10.63-9.94-19.14-20.86-28.08-32.34-5.12-6.58-10.65-12.88-15.46-19.69-7.39-10.44-13.84-21.5-20.27-32.57,2.67.67,5.67,1.78,8.39,1.91-.11.5-.37.99-.34,1.5.04.65,1.87,3.22,2.26,3.89l9.19,15.58c8.73,14.34,19.59,27.53,30.76,39.94-2.32-10.99-2.37-19.66-1.04-30.75.53,15.48,1,30.67,12.87,42.11,19.72,19.01,43.58,33.99,65.49,50.17,2.9,2.14,11.28,10.14,14.26,10.52l.32.86Z"/>
      <path class="cls-17" d="M645.66,554.59c.2.23.39.45.57.67-.14.46-.27.92-.4,1.38l-.24-.41c.02-.55.04-1.1.08-1.65Z"/>
      <path class="cls-17" d="M617.61,508.93l27.97,47.3c-.34,10.16,1.72,20.75,3.24,30.75l12.3,67.15,18.49,98.36,6.17,31.29c1.09,5.46,1.82,12,4.2,17.02l1.03.63,1.53-2.07,9.4,57.77,10.82,57.65c3.11,13.83,6.92,28.82,12.84,41.68,4.7,10.19,10.6,18.47,19.42,25.3,11.91,9.22,29.57,13,43.41,18.66,8.51,3.48,16.69,7.94,24.81,12.27l-11.7-2.82-32.31-5.16c-10.27-1.13-20.29-.85-30.57-.31-2.43,0-5.53-.64-7.28,1.13l-.45,1.77c-1.46.01-2.49-.01-3.87-.61-1.1.57-2.2,1.05-3.15,1.87-4.63-1.06-9.44-3.75-13.64-5.98-26.49-14.04-32.77-44.29-39.59-71.56-1.57-6.27-3.48-15.56-8.05-20.27l-.45-.56-.83,6.28c2.06,4.93,1.03,11.25,1.31,16.54.73,14.31,2.51,29.28,1.71,43.58-.28,5.07-1.05,10.17-2.87,14.92-2.91,7.59-8.2,12.77-15.46,16.05-14.29,6.45-29.73-1.12-44.45.68-6.68.82-12,5.25-18.23,6.49l10.69-12.13,9.92-8.03c19.75-18,24.55-50.68,24.07-76.53-.26-13.93-2.19-27.73-1.52-41.67-3.14,10.44-3.93,21.01-4.89,31.83-1.17,13.32-2.57,27.09-6.82,39.8-4,11.98-10.88,23.42-18.15,33.6-2.13-.73-4.05-1.94-6.01-3.06,1.06-8.13,3.17-16.13,4.54-24.22l9.78-56.89c2.53-12.78,5.81-25.02,7.23-38.04,1.45-13.35,3.1-28.53,1.41-41.9-1.41-11.11-4.85-20.63-4.76-32.1.07-9.07.95-18.13,2.92-26.99,1.47-6.59,3.7-12.96,4.03-19.77.81-16.77-3.95-32.17-4.7-48.64-.73-15.81,1.82-31.5,1.15-47.22-.69-15.92-3.99-32.21-8.05-47.57l-6.94-24.23c-3.72-11.38-8.66-22.16-12.08-33.64-.68-2.29-2.39-6.74-1.8-9.08l1.23,4.92c.11-1.02.35-2.14-.04-3.11-.33-.82-.24-.19-.27-1.27-.02-.7.02-1.45-.17-2.13-.25-.89-.49-1.27-.57-2.25-.15-1.83-.31-5.41-.96-7.03-.29-.73-.23-.31-.26-1.23l-.17-2.84c-.51-2.33-.49-5.13-1.3-7.34-.72-1.94-1.15-5.04-1.28-7.15l-.03-.52-.65-.67c.03-.98.16-1.96-.21-2.88-1.37-3.41-.86-8.48-1.74-12.12-.55-2.29-.74-4.49-1.31-6.67-.32-1.23.31-2.58-.22-3.9-1.22-3.03-.2-7.77-1.33-10.83-.34-.93-.27-.35-.27-1.55,0-1.94-.4-2.72-.79-4.4-.36-1.52.35-3.07-.24-4.67-1.08-2.92-.19-7.19-1.28-9.9-1.28-3.17-.17-8.59-1.24-12-.81-2.6.19-5.57-.5-7.78-.67-2.16-.63-3.54-.62-5.92,0-1.69.3-4.2-.27-5.75-.92-2.49-.2-5.69-.27-8.32l-.64-15.03c-.38-6.14-.21-12.39-.2-18.56,0-2.28-.42-5.77.26-7.89.49-1.51.7-3.15.53-4.74l-.1-.82c.97-1,.65-1.32.65-2.67.94-.97,1.32-3.33,2.49-4.81,2.04-2.58,5.3-4.37,7.71-6.66.39-.37,1.64-1.37,1.84-1.79.9-1.87-.25-7.01.65-9.77l.33-.98c.24-.84.36-1.43.72-2.26,2.03-4.57,3.84-8.26,6.58-12.43l-.19.6-5.22,11.54-.74,1.72c-1.13,2.46-1.35,5.17-1.67,7.83l1.22,1.95c-3,6.2-2.42,14.15-2.58,20.94-.73,31.86,2.16,65.78,12.14,96.1,6.38,19.38,15.1,38.07,25.17,55.72Z"/>
      <path class="cls-17" d="M1246.62,120.77c-13.2,12.5-26.51,22.52-42.25,31.47-32.58,16.25-69,21.12-104.56,25.72-5.69.74-13.25,3.42-18.73,2.29-3.32.99-6.89,2.37-10.39,2.14-12.14,2.71-24.11,5.51-35.91,9.53-5.32,1.81-10.76,3.54-15.67,6.32-4.52,2.55-8.79,5.7-12.8,9.01-2.61,2.15-9.49,10.44-12.29,11.04l-1.4,2.25.27,1.17c-2.39,2.55-4.97,5.93-7.9,7.75l-11.84,17.38-19.92,26.84c-1.13,1.45-5.33,7.76-6.91,8.01.39,2.21-1.2,3.94-2.46,5.75l-1.92,2.54c-1.86,2.02-4.64,5.65-7.14,6.61-6.19,6.61-11.76,14.91-17.07,22.31l-28.43,40.05-54.69,67.64-8.76,10.71c-1.2,1.52-2.44,3.64-4.17,4.46v-.42c.29-4.02,1.91-8.6,2.87-12.56l3.89-18.75,4.26-29.73c.29-1.87.45-5.72,1.24-7.33.73-1.46,4.07-3.97,5.33-5.19l31.31-27.55c5.85-3.61,45.42-35.76,46.95-40.36-5.35,3.37-9.79,7.89-14.98,11.5-16.99,11.8-35.02,21.93-51.21,34.97-2.11,1.7-5.84,4.1-7.17,6.33l-7.83,7.06-.64-.53c1.42-9.83,2.33-22.96,6.95-31.72,1.59-3.01,4.28-5.85,6.42-8.47l12.77-15.42c7.38-6.5,13.75-15.64,19.84-23.42,4.6-5.88,9.68-11.62,13.73-17.91-2.22.55-7.07,6.88-8.99,8.92-5.44,5.77-35.32,38.45-40.77,39.35l.14-3.33c3.8-11.37,3.84-26.76,2.71-38.63-.26-2.71-.36-6.53-1.56-8.99l-.35-.65c-2.23,9.75-1,18.74-1.61,28.57-.53,8.55-3.05,17.18-5.64,25.28l-6.04,14.47c-5.34-10.46-6.76-22.87-8.24-34.41l-4.17-32.41-2.18,2.64v.04c1.23,11.05,1.33,22.56,1.93,33.68.15,2.86-.26,8.13.86,10.65l.77,11.21c-2.77-1.39-4.96-4.06-7.32-6.11l-10.69-8.65-4.79-1.36c-.8-.17-1.17-.12-1.87-.6-.86-.58-2.38-.25-3.44-.21-4.9-1.62-9.87-3.45-14.89-4.6-13.3-3.04-27.48-4.22-39.3-11.73-6.11-3.88-11.58-9.28-16.93-14.19l-.5-.11c-3.72-.98-7.19-5.72-9.82-8.51,2.15,4.06,5.51,6.82,7.53,10.65,3.41,6.47,10.54,12.51,16.57,16.24.68.42.43.26,1.17.87l-1.59.91c12.92,9.33,28.47,10.23,42.81,16.04-10.63,30.15-24.26,58.54-43.69,83.85l-17.64,21.32c-2.02,2.43-5.27,5.58-6.63,8.39-2.88,3.3-5.74,7.14-9.14,9.86-3.45-4.19-7.26-8.27-10.16-12.89-6.09-9.71-8.33-20.25-9.76-31.5l-.11-4.66c-.37-1.62.06-5.35-.55-6.52-.96-1.83-4.36-4.64-5.88-6.32.03,4.11-.28,8.64.79,12.62l.16.54-.62.99-.33-1.33c-.51-1.43-.57-2.47-.65-4-.52.72-.69,1.13-.92,2.02l-.2.87-1.15-.89.51-2.44.14-.57c-1.31-2.01-.07-3.65-.65-5.67-.13-.45-1.59-1.78-1.97-2.21-1.52,19.09.34,39.61,6.26,57.8,2.67,8.22,8.26,16.35,8.35,25.17.1,10.39-5.87,20.55-9.92,29.8l-12.13,28.19c-6.2,14.87-12.6,30.08-17.12,45.58h0s.03.04.05.07c.06.08.12.15.17.23.04.05.08.1.11.16.03.04.06.08.09.12.03.04.06.08.08.12.04.05.07.11.11.16.04.05.07.11.1.16.03.04.05.09.08.13.04.07.08.13.12.2.03.06.07.12.1.18.02.03.03.07.05.1.03.06.06.12.09.18.15.31.28.64.4.99.03.09.06.18.09.28,3.44,12.02,4.3,25.66,6.43,38.03,3.93,22.83,8.45,46.78,15.08,68.93l.18.61c3.64-27.03,11.49-53,27.95-74.98,15.87-21.19,38.89-35.52,58.71-52.41l59.98-56c11.92-11.42,24.69-22.2,35.61-34.62,5.66-6.44,10.52-13.48,15.81-20.23l22.81-28.98,23.72-35.73,24.36-37.01,22.86-36.5c7.77-11.55,16.45-22.7,25.29-33.41,15.1-18.29,32.41-36.27,53.24-47.64,11.48-6.27,23.88-9.68,36.37-13.04,11.03-2.97,22.08-5.85,33.33-7.83l34.73-5.52c7.19-1.38,14.49-2.8,21.52-4.92l14.55-4.73c2.48-.83,4.91-1.96,7.53-2.18l1.26,1.23h.09c19.13-8.81,35.85-25.62,50.25-40.83,5.19-5.49,10.83-10.95,15.1-17.24-2.37,1.01-5.98,5.54-8.01,7.45ZM698.74,514.34c5.04-15.8,10.58-31.78,19.04-46.06,13.42-22.66,30.79-42.58,45.83-64.08,12.92-18.46,23.4-38.09,30.49-59.65,2.68-8.15,5.71-17.47,5.38-26.14l1.18-.86c9.58,7.5,19.58,17.21,24.05,28.92l-7.8,27.42c-8.58,30.29-18.33,59.61-30.76,88.52-2.79,6.5-5.38,14.21-9.22,20.11-2.53,3.9-6.07,6.75-9.62,9.63l-46.6,25.63c-9.04,4.94-18.55,10.64-26.54,17.23-1.35-4.94,2.92-15.54,4.56-20.67Z"/>
      <path class="cls-6" d="M702.14,430.66c-.69,1.18-1.8,1.46-2.98,1.95-.64-.2-1.1-.33-1.63-.77-1.44-1.21-2.68-3.12-3.91-4.57-8.1-9.52-13.72-22.45-13.52-35.33.04-2.79.13-3.75,2.11-5.66,1.43,11.25,3.67,21.79,9.77,31.5,2.9,4.62,6.71,8.7,10.16,12.89Z"/>
      <path class="cls-15" d="M779.24,307.25l4.77,1.98c-6.4,15.74-12.47,31.57-20.48,46.56-9.52,17.79-22.17,34.71-34.43,50.64-3.39,4.4-8.65,13-13.64,15.28-1.01.46-.38,0-1.3.26-.86.25-1.64,1.05-2.28,1.65l-1.21-.17,1.28-1.7-.65-.95c1.36-2.8,4.62-5.95,6.63-8.39l17.64-21.32c19.42-25.31,33.06-53.7,43.69-83.85Z"/>
      <path class="cls-15" d="M665.23,588.59c3.37-11,11.35-19.14,19.91-26.18,20.41-16.8,44.78-26.16,66.71-40.36,10.09-6.53,18.62-14.81,27.1-23.34.03,1.32.49,4.14.15,5.27-1.13,3.82-6.94,9.4-9.71,12.37-9.62,10.27-22.35,16.89-34.3,23.84-8.16,4.74-16.17,9.95-23.67,15.73-13.33,10.3-22.46,24.43-33.8,36.65-2.95-2.22-4.89-4.3-8.78-3.87l-1.14.23c-1.1.2-1.47.1-2.47-.33Z"/>
      <path class="cls-6" d="M708.44,979.57c.16-2.34.32-4.43-.11-6.75-1.28-6.97-1.78-14.36-2.55-21.41-.97-8.91-2.29-17.64-1.35-26.62l14.85,39.85c1.77,4.85,2.6,10.86,5.12,15.33,1.4,2.48,3.74,4.19,6.2,5.42,5.75,2.87,11.84,4.95,17.96,6.83l39.32,11.58c4.05,1.2,11.07,2.02,14.07,5.09l-.4.99-32.31-5.16c-10.27-1.13-20.29-.85-30.57-.31-2.43,0-5.53-.64-7.28,1.13l-.61-.28c-10.89-5.08-18.13-14.52-22.34-25.68Z"/>
      <path class="cls-6" d="M800.19,316.22c-.18,1.11-.8.63-.71,2.19.33,8.66-2.7,17.99-5.38,26.14-7.1,21.56-17.57,41.19-30.49,59.65-15.04,21.5-32.41,41.42-45.83,64.08-8.45,14.28-14,30.26-19.04,46.06-1.64,5.13-5.9,15.73-4.56,20.67l.38.66c-14.49,11.51-31.87,26.33-35.83,45.6-.6,1.52-.74,3.13-.95,4.75l-.66-.33-.18-3c.08-2.22,1.19-4.58,1.88-6.67,4.03-12.14,10.95-19.61,19.59-28.62,1.67-6.49,2.43-13.17,3.97-19.7,5.16-21.88,12-45.19,22.31-65.15,8.9-17.24,21.35-31.42,33.22-46.47,18.33-23.23,33.96-47.73,44.83-75.62,3.1-7.95,7.32-17.22,7.03-25.91-1.24-2.53-3.54-3.79-5.76-5.33l-4.77-1.98c-14.33-5.81-29.89-6.72-42.81-16.04l1.59-.91c6.03,4.66,14.64,6.45,21.87,8.19l20.75,5.67c6.77,2.1,12.59,4.95,18.95,7.89.14.98.75,3.29.6,4.19Z"/>
      <path class="cls-13" d="M630.4,990.61l6.03-13.92c6.98-17.21,7.77-35.72,7.49-54.12-.16-10.23-.86-20.45.07-30.67,1.17-12.85,6.43-23.75,10.11-35.87,2.27-7.48,2.99-15.82,3.35-23.61.83-17.67-.53-33.2-7.22-49.67l-3.65,66.65c-6.81-14.15-8.34-33.23-9.97-48.85-2.03-19.55-4.6-39.16-5.04-58.83l.68-38.9-1.82-57.3c-2.9-38.57-9.97-77.04-14.49-115.48,18.9,36.07,25.67,80.13,28.21,120.62,1.83,29.26,1.9,58.89,5.87,87.95,3.61,26.41,17.29,49.03,23.44,74.74,4.02,16.81,4.98,34.58,7.43,51.71,3.46,24.24,9.14,47.55,14.93,71.26,3.44,14.07,6.49,29.49,12.35,42.7l.25.54c4.21,11.16,11.45,20.6,22.34,25.68l.61.28-.45,1.77c-1.46.02-2.48-.01-3.87-.61-1.1.57-2.21,1.05-3.15,1.87-4.62-1.06-9.44-3.75-13.64-5.98-26.49-14.04-32.77-44.29-39.59-71.56-1.57-6.27-3.47-15.56-8.04-20.27l-.45-.56-.83,6.28-.15.64c-1.55,6.84-1.37,14.55-1.85,21.58-1.28,18.41-3.99,45.33-20.75,56.33-3.41,2.24-7.1,3.88-10.97,5.09.7-3.11,1.31-6.25,2.39-9.26l.38-.24Z"/>
      <path class="cls-15" d="M630.4,990.61c5.85-2.86,16.88-28.01,19.14-34.74,5.6-16.64,5.17-33.93,7.89-51.06,2-12.58,6.7-24.92,9.6-37.34,1.89-8.08,2.37-16.74,4.48-24.65,2.67,38.99,8.12,76.65,19.34,114.15,2.24,7.47,4.14,15.37,7.6,22.37,3.26,6.58,7.32,12.07,12.81,16.89,4.41,3.88,10.37,8.27,15.8,10.46-1.1.57-2.21,1.05-3.15,1.87-4.62-1.06-9.44-3.75-13.64-5.98-26.49-14.04-32.77-44.29-39.59-71.56-1.57-6.27-3.47-15.56-8.04-20.27l-.45-.56-.83,6.28-.15.64c-1.55,6.84-1.37,14.55-1.85,21.58-1.28,18.41-3.99,45.33-20.75,56.33-3.41,2.24-7.1,3.88-10.97,5.09.7-3.11,1.31-6.25,2.39-9.26l.38-.24Z"/>
      <path class="cls-23" d="M1204.37,152.23c-3.27,5.23-9.36,7.73-14.74,10.23-15.4,7.14-31.41,11.27-47.85,14.97-8.61,1.94-17.36,2.95-26.05,4.43l-45.75,9.14c-12.89,2.98-25.9,6.41-37.85,12.32-21.57,10.67-35.96,31.13-50.94,49.28l-26.1,31.64-53.32,74.81c-12.05,17.18-23.27,35.26-36.24,51.73-5.53,7.03-11.78,13.61-17.71,20.28-8.88,9.99-17.7,19.99-27.49,29.06l-21.45,18.19-19.91,20.4c-8.48,8.53-17.01,16.81-27.1,23.34-21.93,14.2-46.3,23.56-66.71,40.36-8.57,7.05-16.54,15.18-19.91,26.18-.77,4.5-2.23,9.05-3.63,13.39-2.91-7.47-3.1-12.81-2.86-20.71,3.96-19.28,21.33-34.1,35.83-45.6l-.38-.66c7.99-6.59,17.5-12.29,26.54-17.23l46.6-25.63c3.55-2.88,7.09-5.72,9.62-9.63,3.83-5.9,6.43-13.62,9.22-20.11,12.43-28.9,22.18-58.23,30.76-88.52l7.8-27.42c-4.47-11.71-14.47-21.42-24.05-28.92l-1.18.86c-.09-1.56.53-1.09.71-2.19.15-.9-.46-3.2-.6-4.19-6.36-2.95-12.18-5.79-18.95-7.89l-20.75-5.67c-7.23-1.74-15.84-3.53-21.87-8.19-.74-.61-.49-.46-1.17-.87-6.03-3.73-13.16-9.77-16.57-16.24-2.02-3.84-5.37-6.59-7.53-10.65,2.63,2.79,6.1,7.52,9.82,8.51l.5.11c5.34,4.91,10.82,10.3,16.93,14.19,11.82,7.51,26.01,8.69,39.3,11.73,5.02,1.15,10,2.98,14.89,4.6,1.05-.04,2.58-.37,3.44.21.7.47,1.08.42,1.87.6l4.79,1.36,10.69,8.65c2.35,2.05,4.54,4.72,7.32,6.11l-.77-11.21c-1.13-2.51-.71-7.79-.86-10.65-.6-11.12-.7-22.63-1.92-33.68v-.04s2.16-2.64,2.16-2.64l4.17,32.41c1.48,11.54,2.9,23.95,8.24,34.41l6.04-14.47c2.59-8.1,5.11-16.73,5.64-25.28.61-9.82-.62-18.82,1.61-28.57l.35.65c1.21,2.46,1.31,6.28,1.56,8.99,1.14,11.86,1.1,27.26-2.71,38.63l-.14,3.33c5.45-.9,35.33-33.58,40.77-39.35,1.92-2.04,6.77-8.37,8.99-8.92-4.04,6.29-9.13,12.04-13.73,17.91-6.09,7.79-12.47,16.92-19.84,23.42l-12.77,15.42c-2.14,2.62-4.83,5.47-6.42,8.47-4.63,8.75-5.54,21.89-6.95,31.72l.64.53,7.83-7.06c1.32-2.23,5.06-4.63,7.17-6.33,16.19-13.04,34.22-23.17,51.21-34.97,5.19-3.6,9.63-8.13,14.98-11.5-1.53,4.6-41.11,36.75-46.95,40.36l-31.31,27.55c-1.26,1.22-4.6,3.72-5.33,5.19-.79,1.61-.95,5.46-1.24,7.33l-4.26,29.73-3.89,18.75c-.96,3.96-2.58,8.54-2.87,12.56v.42c1.72-.82,2.96-2.94,4.17-4.46l8.76-10.71,54.69-67.64,28.43-40.05c5.3-7.4,10.87-15.7,17.07-22.31,2.5-.96,5.28-4.6,7.14-6.61l1.92-2.54c1.26-1.8,2.85-3.54,2.46-5.75,1.58-.25,5.77-6.56,6.91-8.01l19.92-26.84,11.84-17.38c2.94-1.82,5.51-5.2,7.9-7.75l-.27-1.17,1.4-2.25c2.8-.6,9.68-8.89,12.29-11.04,4.01-3.31,8.28-6.46,12.8-9.01,4.91-2.78,10.35-4.51,15.67-6.32,11.8-4.02,23.77-6.82,35.91-9.53,3.49.23,7.07-1.15,10.39-2.14,5.47,1.13,13.03-1.55,18.73-2.29,35.57-4.59,71.98-9.46,104.56-25.72Z"/>
      <path class="cls-21" d="M831.44,331.34l1.66,1.76,2.26,2.41c-.45,2.87-.92,5.36-2.11,8.03l-.15-.51-.28-.84c-.95-2.93-2.68-5.46-4.28-8.06,1.62-.72,1.99-1.32,2.9-2.78Z"/>
      <path class="cls-25" d="M822.31,318.59l-.55.17c-.8.23-1.55.32-2.37.41l-1.81,1.6c-5.05-4.48-9.47-10-15.02-13.83l-8.36-5.28c1.05-.04,2.58-.37,3.44.21.7.47,1.08.42,1.87.6l4.79,1.36,10.69,8.65c2.35,2.05,4.54,4.72,7.32,6.11Z"/>
      <path class="cls-6" d="M831.44,331.34c-.91,1.46-1.28,2.06-2.9,2.78l-10.96-13.35,1.81-1.6c.82-.09,1.57-.18,2.37-.41l.55-.17-.77-11.21c1,.73,1.08.48,1.32,1.79.78,4.22,2.14,9.02,4,12.88,1.46,3.03,3.69,6.05,4.59,9.29Z"/>
      <path class="cls-25" d="M824.71,346.47c-4.47-11.71-14.47-21.42-24.05-28.92l-1.18.86c-.09-1.56.53-1.09.71-2.19.15-.9-.46-3.2-.6-4.19,7.55,5.3,15.05,12.55,20.8,19.86,1.79,2.27,4.19,5.24,4.95,8.08.54,2.04.15,4.6-.62,6.5Z"/>
      <path class="cls-15" d="M767.32,492.16c-1.07,5.01-9.63,9.63-13.72,12.32-6.37,4.19-13.24,6.43-20.2,9.27-4.07,1.66-8.23,4.16-12.67,4.04l46.6-25.63Z"/>
      <path class="cls-17" d="M806.21,465.06c-3.22,6.62-9.51,13.63-15.46,17.75l21.83-64.74c6.34-22.2,9.41-45.1,18.35-66.51,1.15,5.2-1.7,11.71-2.55,16.99-3.32,20.72-5.44,41.88-11.32,62.08l-5.34,16.12c-1.62,4.34-6.83,13.91-5.51,18.3Z"/>
      <path class="cls-22" d="M917.54,299.82c-1.53,4.6-41.11,36.75-46.95,40.36l-31.31,27.55c-1.26,1.22-4.6,3.72-5.33,5.19-.79,1.61-.95,5.46-1.24,7.33l-4.26,29.73-3.89,18.75c-.96,3.96-2.58,8.54-2.87,12.56v.42s0,.52,0,.52c.05.82.01.51.3,1.39l-15.79,21.44c-1.31-4.39,3.9-13.96,5.51-18.3l5.34-16.12c5.88-20.2,8-41.36,11.32-62.08.85-5.28,3.69-11.78,2.55-16.98.64-2.77,1.31-5.38,2.32-8.04,1.2-2.67,1.66-5.16,2.11-8.03l-2.26-2.41-1.65-1.76c-.89-3.24-3.13-6.26-4.59-9.29-1.86-3.86-3.21-8.66-4-12.88-.24-1.31-.32-1.06-1.32-1.79-1.13-2.51-.71-7.79-.86-10.65-.6-11.12-.7-22.63-1.92-33.68v-.04s2.16-2.64,2.16-2.64l4.17,32.41c1.48,11.54,2.9,23.95,8.24,34.41l6.04-14.47c2.59-8.1,5.11-16.73,5.64-25.28.61-9.82-.62-18.82,1.61-28.57l.35.65c1.21,2.46,1.31,6.28,1.56,8.99,1.14,11.86,1.1,27.26-2.71,38.63l-.14,3.33c5.45-.9,35.33-33.58,40.77-39.35,1.92-2.04,6.77-8.37,8.99-8.92-4.04,6.29-9.13,12.04-13.73,17.91-6.09,7.79-12.47,16.92-19.84,23.42l-12.77,15.42c-2.14,2.62-4.83,5.47-6.42,8.47-4.63,8.75-5.54,21.89-6.95,31.72l.64.53,7.83-7.06c1.32-2.23,5.06-4.63,7.17-6.33,16.19-13.04,34.22-23.17,51.21-34.97,5.19-3.6,9.63-8.13,14.97-11.5Z"/>
      <path class="cls-15" d="M845.81,307.14l-2.14,3.37-.25-.77c-.33-1.06-.25-.62-.28-1.66-1.54.77-2.16,3.57-3.03,5.2l-.75-.56c2.59-8.1,5.11-16.73,5.64-25.28.61-9.82-.62-18.82,1.61-28.57l.35.65c1.21,2.46,1.31,6.28,1.56,8.99,1.14,11.86,1.1,27.26-2.71,38.63Z"/>
      <path class="cls-15" d="M834.09,327.9c-.27,1.75-.49,3.51-1,5.2l-1.65-1.76c-.89-3.24-3.13-6.26-4.59-9.29-1.86-3.86-3.21-8.66-4-12.88-.24-1.31-.32-1.06-1.32-1.79-1.13-2.51-.71-7.79-.86-10.65-.6-11.12-.7-22.63-1.92-33.68v-.04s2.16-2.64,2.16-2.64l4.17,32.41c1.48,11.54,2.9,23.95,8.24,34.41l.77.71Z"/>
      <path class="cls-15" d="M895.43,262.2c-4.04,6.29-9.13,12.04-13.73,17.91-6.09,7.79-12.47,16.92-19.84,23.42-2.01.66-3.7,2.85-5.18,4.37-5.42,5.58-9.74,12.04-14.92,17.84,1.05-4.48,1.91-9.1,4.04-13.19-.18-1.34-.04-.7-.4-1.93l.27-.16c5.45-.9,35.33-33.58,40.77-39.35,1.92-2.04,6.77-8.37,8.99-8.92Z"/>
      <path class="cls-1" d="M917.54,299.82c-1.53,4.6-41.11,36.75-46.95,40.36l-.36-1.57c-10.01,6.04-18.81,14.9-28.24,21.89-1.6,1.53-4.42,3.74-6.59,3.74.33-1.72.58-2.05-.21-3.67l.53-1.43.64.53,7.83-7.06c1.32-2.23,5.06-4.63,7.17-6.33,16.19-13.04,34.22-23.17,51.21-34.97,5.19-3.6,9.63-8.13,14.98-11.5Z"/>
      <path class="cls-6" d="M870.59,340.18l-31.31,27.55c-1.26,1.22-4.6,3.72-5.33,5.19-.79,1.61-.95,5.46-1.24,7.33l-4.26,29.73-3.89,18.75c-.96,3.96-2.58,8.54-2.87,12.56v.42s0,.52,0,.52c.05.82.01.51.3,1.39l-15.79,21.44c-1.31-4.39,3.9-13.96,5.51-18.3l5.34-16.12c5.88-20.2,8-41.36,11.32-62.08.85-5.28,3.69-11.78,2.55-16.98.64-2.77,1.31-5.38,2.32-8.04,1.2-2.67,1.66-5.16,2.11-8.03l-2.26-2.41c.5-1.7.72-3.45,1-5.2l-.77-.71,6.04-14.47.75.56c.86-1.63,1.48-4.43,3.03-5.2.03,1.04-.05.61.28,1.66l.25.77,2.14-3.37-.14,3.33-.27.16c.36,1.23.22.59.4,1.93-2.14,4.1-2.99,8.71-4.04,13.19,5.18-5.8,9.5-12.26,14.92-17.84,1.48-1.52,3.17-3.71,5.18-4.37l-12.77,15.42c-2.14,2.62-4.83,5.47-6.42,8.47-4.63,8.75-5.54,21.89-6.95,31.72l-.53,1.43c.79,1.62.53,1.95.21,3.67,2.16,0,4.99-2.21,6.59-3.74,9.43-7,18.23-15.85,28.24-21.89l.36,1.57Z"/>
      <path class="cls-9" d="M843.67,310.51l-8.31,24.99-2.26-2.41c.5-1.7.72-3.45,1-5.2l-.77-.71,6.04-14.47.75.56c.86-1.63,1.48-4.43,3.03-5.2.03,1.04-.05.61.28,1.66l.25.77Z"/>
    </g>
  </g>
</svg>