<?xml version="1.0" encoding="UTF-8"?>
<svg id="Layer_2" data-name="Layer 2" xmlns="http://www.w3.org/2000/svg" viewBox="0 0 238.77 127.48">
  <defs>
    <style>
      .cls-1 {
        fill: #fff;
      }
    </style>
  </defs>
  <g id="Layer_1-2" data-name="Layer 1">
    <g>
      <path class="cls-1" d="M206.06.04c-12.28,0-22.27,9.99-22.27,22.27s9.99,22.26,22.27,22.26,22.26-9.99,22.26-22.26S218.33.04,206.06.04M223.43,9.87c-1.14.77-2.34,1.47-3.58,2.08-.73-1.47-1.63-2.87-2.66-4.16.91-.56,1.79-1.18,2.59-1.86,1.38,1.16,2.61,2.48,3.65,3.94M214.06,2.49c1.78.72,3.45,1.68,4.99,2.86-.77.63-1.59,1.22-2.45,1.73-1.09-1.25-2.33-2.39-3.67-3.39.41-.38.79-.78,1.13-1.21M215.78,7.55c-1.19.64-2.45,1.17-3.75,1.56-.54-1.24-1.16-2.46-1.86-3.63.72-.32,1.4-.71,2.03-1.19,1.3.95,2.5,2.04,3.57,3.25M213.15,2.15c-.3.36-.63.69-.98,1.01-1.18-.81-2.43-1.49-3.73-2.07,1.62.18,3.2.53,4.72,1.06M211.41,3.74c-.53.38-1.11.7-1.71.95-.64-1.02-1.37-2.02-2.15-2.99,1.35.55,2.65,1.24,3.85,2.04M206.52,1.86c.82.99,1.59,2.04,2.3,3.15-.74.23-1.52.37-2.3.4V1.86ZM206.52,6.33c.96-.04,1.9-.22,2.8-.52.68,1.13,1.29,2.32,1.83,3.54-1.51.39-3.07.6-4.63.64v-3.66ZM205.59,1.9v3.51c-.76-.04-1.52-.18-2.26-.4.69-1.07,1.44-2.11,2.26-3.11M202.45,4.7c-.61-.26-1.18-.58-1.71-.95,1.2-.8,2.49-1.47,3.84-2.03-.76.95-1.48,1.95-2.12,2.98M203.73,1.08c-1.32.58-2.57,1.26-3.76,2.07-.35-.32-.68-.66-.98-1.01,1.53-.54,3.12-.89,4.75-1.07M218.98,39.3c-2.96-1.63-3.02-3.88-2.86-4.71.16-.84.74-.47,1.11-.47,1.95,0,3.99-.58,6.52-3.15,2.84-2.91,3.73-9.36-.63-13.56-4.71-4.53-9.72-3.74-12.96.33-.66.83-2.27,1.45-3.67,1.4-2.07-.08-.77,1.55-.77,1.89s-.32.58-.5.53c-.7-.2-.42.84-.42,1.16s-.29.47-.44.47c-.88,0-.63.78-.61,1,.03.21-.05.57-.34.73-.28.16-.61.84-.61,1.37,0,.95.87,1.6,2.32,2.68,1.44,1.08,1.63,2.1,1.65,2.84.02.74.09,1.92.42,2.71.38.95.34,2.68-1.66,2.76-2.44.1-6.78,2.05-7.15,2.18-1.37.49-3.2.66-4.62.31-.77-.54-1.5-1.13-2.19-1.77-.29-.98.21-2.04.71-2.75.81.81,2.02.76,2.7.78.68.03,4.02-.5,4.49-.65.48-.16.69-.11.98,0,1.27.46,3.01.6,3.73-1.84.71-2.44-.97-1.76-1.18-1.66-.22.11-.5.08-.4-.13.32-.62-.16-.56-.42-.58-.67-.07-1.57.66-1.86.92-.29.26-.58.24-.69.18-.91-.45-3.6.2-4.44-1.26.09-.39-.68-6.33-1.07-7.36-.09-.22-.16-.58.1-.97.69-1.03,2.58.08,3.6.05,1.23-.04,1.42-.55,1.76-.96.32-.4.56-.18.74-.29.22-.14.01-.44.09-.59.07-.16.17-.08.38-.26.21-.19-.03-.58.08-.73.3-.46,1.13-.09.64-1.28-.28-.66.1-1.37.46-1.84.6-.77,2.9-4-1.15-7.36-3.87-3.2-7.78-2.95-10.3-.21-2.52,2.73-1.26,6.73-1,7.78.26,1.05-.5,2.01-1.37,2.42-.69.33-2.27,1.38-3.45,2.41.19-8.58,5.4-16.12,13.37-19.33.34.43.72.83,1.13,1.2-.89.65-2.83,2.38-2.83,2.38,0,0,.27.04.51.1.18.04.54.15.54.15,0,0,1.71-1.45,2.51-2.03.63.47,1.31.87,2.03,1.19-.38.66-1.36,2.49-1.36,2.49,0,0,.22.13.42.27.21.14.33.25.33.25,0,0,1.06-2,1.46-2.67.9.3,1.82.47,2.77.51v3.67c-.52-.01-1.87-.07-2.41-.13l-.34-.04.19.29c.14.21.26.42.35.61l.04.08h.09c.39.04,1.63.08,2.08.09v6.67h.93v-1.52c1.36-.07,2.49-.16,3.85-.28h.06s1.2-1.07,1.2-1.07l-.65.06c-1.45.19-2.72.28-3.86.34,0,0-.4.02-.6.04v-4.24c1.68-.04,3.36-.27,4.99-.7.45,1.1,1.3,3.77,1.3,3.77l.87-.27s-.84-2.65-1.29-3.75c1.39-.43,2.73-1.01,4-1.7,1.02,1.26,1.91,2.63,2.63,4.09-.65.31-1.85.73-1.85.73.96.1,1.69.33,1.69.33,0,0,.34-.14.55-.24.09.19.25.58.25.58l1.2.53-.14-.33s-.4-.95-.49-1.17c1.27-.63,2.52-1.35,3.71-2.15,2.27,3.47,3.48,7.5,3.48,11.67,0,6.92-3.31,13.09-8.44,16.99"/>
      <path class="cls-1" d="M181.78,5.95l-.35.3c-1.3,1.16-4.29,4.21-3.83,7.56,0,.01.05.23.05.23,0,0,.15.66.15.66l.41-.38c1.83-1.67,3.2-4.5,3.76-7.77l.17-.92-.35.31Z"/>
      <path class="cls-1" d="M175.72,11.74l-.15.41c-.21.56-.58,1.73-.79,3.29-.28,2.21-.22,5.34,1.71,7.67,0,0,.21.28.21.28l.22.28.29-1.42c.32-2.51-.1-7.77-1.03-10.12l-.32-.79-.15.4Z"/>
      <path class="cls-1" d="M173.51,20.78l-.03.42c-.16,2.25-.04,7.8,4.46,10.75l.53.35-.02-.63c-.08-2.11-2.54-8.4-4.39-10.65l-.52-.64-.03.41Z"/>
      <path class="cls-1" d="M174.29,30.71l.07.38c.66,3.19,3.69,8.36,8.36,9.86l.63.21-.23-.63c-.88-2.38-5.38-7.94-8.27-9.78l-.65-.41.09.38Z"/>
      <path class="cls-1" d="M183.67,10.76l-.37.22c-3.48,2.12-5.1,4.7-4.98,7.87l.03.73.51-.42c1.88-1.56,4.23-5.54,4.93-7.8l.25-.82-.37.22Z"/>
      <path class="cls-1" d="M181.63,17.71l-.26.25c-.89.85-3.77,3.92-3.53,7.71.04.58.17,1.21.4,1.86l.2.6.37-.52c1.38-1.94,3.2-7.05,3.1-9.43l-.03-.72-.26.25Z"/>
      <path class="cls-1" d="M181.77,24.29l-.19.29c-1.46,2.16-2.2,4.37-2.15,6.42.04,1.51.53,2.95,1.44,4.29l.3.45.25-.48c.63-1.18,1.13-5.01,1.05-8.04-.03-1.07-.14-1.96-.31-2.56l-.19-.67-.19.29Z"/>
      <path class="cls-1" d="M183.46,31.33l-.09.31c-.44,1.4-.64,2.77-.61,4.07.09,2.95,1.39,5.25,3.88,6.84l.42.27.09-.57s.03-.45.03-.45c-.07-2.39-1.85-8.42-3.25-10.26l-.38-.5-.1.3Z"/>
      <path class="cls-1" d="M178.56,40.67l.18.3c1.87,3.14,5.05,7.19,11,6.15l.49-.09-.28-.42c-1.11-1.65-8.33-5.72-10.88-6.14l-.7-.11.18.3Z"/>
      <path class="cls-1" d="M187.35,48.64h0l-.93.25.89.37c3.78,1.55,8.52,2.01,11.27,1.08,1.04-.35,1.66-.92,2.43-1.66,4.83.5,9.36,4.52,12,7.81,0,0,.15.16.15.16l.2-.06c.3-.1.76-.46.95-.66l.18-.2-.16-.22c-2.76-3.6-7.07-5.83-7.26-5.93-3.88-1.89-10.73-3.37-19.71-.93"/>
      <path class="cls-1" d="M187.55,38.59l.05.32c.57,3.56,2.01,8.24,8.02,7.72l.39-.03-.1-.38c-.41-1.62-5.92-6.32-7.85-7.65l-.57-.3.05.32Z"/>
      <path class="cls-1" d="M230.08,5.64l.16.92c.56,3.27,1.93,6.1,3.76,7.78l.41.38s.15-.66.15-.66c0,0,.05-.22.05-.23.46-3.35-2.52-6.4-3.83-7.56l-.35-.31-.35-.31Z"/>
      <path class="cls-1" d="M236.34,11.34l-.32.8c-.92,2.35-1.35,7.6-1.02,10.11l.29,1.42.22-.28s.21-.28.21-.28c1.92-2.33,1.99-5.46,1.69-7.67-.19-1.56-.57-2.73-.78-3.29l-.15-.41-.15-.4Z"/>
      <path class="cls-1" d="M238.67,20.36l-.53.64c-1.84,2.25-4.3,8.54-4.38,10.65l-.02.63.53-.35c4.5-2.94,4.61-8.5,4.46-10.75l-.03-.41-.03-.42Z"/>
      <path class="cls-1" d="M238,30.34l-.65.41c-2.9,1.83-7.4,7.39-8.27,9.78l-.23.63.65-.21c4.67-1.5,7.7-6.66,8.35-9.86l.08-.38.08-.38Z"/>
      <path class="cls-1" d="M228.35,10.43l.24.83c.64,2.28,2.92,6.3,4.77,7.89l.5.43.04-.73c.19-3.17-1.39-5.78-4.83-7.97l-.37-.23-.35-.23Z"/>
      <path class="cls-1" d="M230.32,17.46l-.02.72c-.1,2.38,1.72,7.49,3.1,9.43l.38.52.21-.61c.22-.65.35-1.28.39-1.86.25-3.79-2.63-6.86-3.52-7.71l-.26-.25-.27-.25Z"/>
      <path class="cls-1" d="M230.24,24l-.2.67c-.18.6-.29,1.49-.31,2.56-.07,3.02.42,6.85,1.05,8.03l.26.48.31-.45c.91-1.34,1.39-2.79,1.42-4.3.05-2.04-.69-4.26-2.14-6.42l-.19-.29-.19-.29Z"/>
      <path class="cls-1" d="M228.65,31.03l-.38.5c-1.39,1.84-3.18,7.87-3.24,10.26,0,0,.03.44.03.45l.09.57.42-.27c2.49-1.59,3.79-3.89,3.88-6.84.03-1.3-.17-2.67-.61-4.07l-.1-.3-.09-.3Z"/>
      <path class="cls-1" d="M233.83,40.36l-.69.11c-2.55.42-9.77,4.49-10.88,6.14l-.28.42.49.09c5.95,1.04,9.12-3.01,11-6.15l.18-.3.18-.3Z"/>
      <path class="cls-1" d="M205.14,49.57c-.19.09-4.51,2.32-7.26,5.92l-.17.22.19.2c.19.21.65.56.95.66l.2.06.14-.16c2.64-3.29,7.17-7.31,12.01-7.81.76.75,1.39,1.31,2.43,1.67,2.74.92,7.49.47,11.26-1.08l.9-.37-.93-.25c-8.99-2.44-15.84-.96-19.72.93"/>
      <path class="cls-1" d="M224.71,38.27l-.58.3c-1.93,1.32-7.43,6.03-7.84,7.65l-.1.38.38.03c6.02.52,7.46-4.16,8.03-7.72l.06-.32.05-.32Z"/>
      <path class="cls-1" d="M70.83,1.61h7.61v6.93h-7.61V1.61ZM71.44,16.41h6.39v33.78h-6.39V16.41Z"/>
      <path class="cls-1" d="M23.18,16.44h6.39v33.78h-6.25v-4.98h-.14c-2.55,4.24-6.86,5.99-11.57,5.99-7.06,0-11.1-5.38-11.1-12.18v-22.61h6.39v19.98c0,5.85,1.35,10.16,7.47,10.16,2.63,0,6.19-1.35,7.54-4.84,1.21-3.16,1.28-7.13,1.28-7.94v-17.36Z"/>
      <path class="cls-1" d="M42.34,21.42h.14c2.15-4.24,6.86-5.99,10.22-5.99,2.35,0,12.78.61,12.78,11.44v23.35h-6.38v-21.26c0-5.59-2.36-8.61-7.74-8.61,0,0-3.5-.2-6.19,2.49-.94.94-2.69,2.42-2.69,9.02v18.37h-6.4V16.44h6.26v4.98Z"/>
      <path class="cls-1" d="M104.59,27.28c-.33-4.21-2.33-7.15-6.89-7.15-6.08,0-8.42,5.27-8.42,13.17s2.34,13.17,8.42,13.17c4.21,0,6.82-2.73,7.15-7.56h6.36c-.54,7.56-6.15,12.16-13.57,12.16-10.76,0-15.03-7.62-15.03-17.52s4.94-18.05,15.58-18.05c7.08,0,12.43,4.48,12.75,11.77h-6.35Z"/>
      <path class="cls-1" d="M120.76,34.49c-.47,5.89,1.94,11.97,8.42,11.97,4.95,0,7.42-1.94,8.15-6.83h6.7c-1.01,7.63-6.89,11.44-14.91,11.44-10.77,0-15.05-7.62-15.05-17.52s4.96-18.05,15.58-18.05c10.02.21,14.77,6.55,14.77,15.85v3.13h-23.65ZM137.74,30.09c.13-5.61-2.42-9.96-8.56-9.96-5.29,0-8.42,4.46-8.42,9.96h16.98Z"/>
      <path class="cls-1" d="M151.61,50.07v-29.15h-5.77v-4.42h5.77v-7.21c.21-7.36,5.75-9.29,10.5-9.29,1.53,0,3.01.4,4.55.66v5.28c-1.08-.06-2.15-.2-3.23-.2-3.6,0-5.68.94-5.47,4.62v6.15h7.75v4.42h-7.75v29.15h-6.35Z"/>
      <rect class="cls-1" x=".37" y="73.35" width="236.02" height="1.29"/>
      <path class="cls-1" d="M4.29,119.33v-18.98H0v-2.34h4.29v-4.54c0-3.65,1.48-5.31,5.14-5.31.81,0,1.66.3,2.42.47v2.04c-.51-.09-1.07-.17-1.58-.17-3.48,0-3.56,1.74-3.44,4.8v2.72h4.84v2.34h-4.84v18.98h-2.55Z"/>
      <path class="cls-1" d="M32.51,108.67c0,5.6-3.14,11.29-9.94,11.29s-9.94-5.69-9.94-11.29,3.14-11.3,9.94-11.3,9.94,5.69,9.94,11.3M22.57,99.71c-5.14,0-7.18,5.01-7.18,8.96s2.03,8.96,7.18,8.96,7.18-5.01,7.18-8.96-2.04-8.96-7.18-8.96"/>
      <path class="cls-1" d="M38.76,119.33h-2.54v-16.52c.04-1.66-.13-3.36-.21-4.8h2.63l.13,3.14h.09c.77-2.17,2.67-3.69,4.8-3.78.85-.04,1.7,0,2.55.04v2.46c-.51-.04-1.07-.17-1.58-.17-3.77,0-5.77,2.72-5.86,6.8v12.82Z"/>
      <path class="cls-1" d="M58.55,109.26c.09,4.54,2.17,8.36,7.39,8.36,3.02,0,5.52-2.17,6.16-5.09h2.68c-1.32,5.09-4.5,7.43-9.64,7.43-6.37,0-9.34-5.48-9.34-11.29s3.18-11.3,9.51-11.3c7.14,0,9.73,5.23,9.73,11.89h-16.48ZM72.27,106.93c-.3-4.12-2.5-7.22-6.92-7.22-4.16,0-6.37,3.48-6.71,7.22h13.63Z"/>
      <polygon class="cls-1" points="78.47 98.01 85.81 115.8 92.9 98.01 95.7 98.01 87.26 119.33 84.37 119.33 75.66 98.01 78.47 98.01"/>
      <path class="cls-1" d="M99,109.26c.09,4.54,2.17,8.36,7.39,8.36,3.02,0,5.52-2.17,6.16-5.09h2.67c-1.31,5.09-4.5,7.43-9.64,7.43-6.36,0-9.34-5.48-9.34-11.29s3.18-11.3,9.51-11.3c7.14,0,9.73,5.23,9.73,11.89h-16.48ZM112.71,106.93c-.3-4.12-2.5-7.22-6.92-7.22-4.16,0-6.37,3.48-6.71,7.22h13.63Z"/>
      <path class="cls-1" d="M121.99,119.33h-2.55v-16.52c.05-1.66-.13-3.36-.21-4.8h2.63l.12,3.14h.09c.76-2.17,2.68-3.69,4.8-3.78.85-.04,1.7,0,2.55.04v2.46c-.51-.04-1.07-.17-1.58-.17-3.77,0-5.77,2.72-5.86,6.8v12.82Z"/>
      <polygon class="cls-1" points="134.9 98.01 142.07 115.84 149.2 98.01 151.97 98.01 140.21 127.48 137.41 127.48 140.63 119.33 131.8 98.01 134.9 98.01"/>
      <path class="cls-1" d="M176.25,104.55c-.21-3.27-2.29-4.84-5.82-4.84-3.9,0-6.32,4.07-6.32,8.92s2.42,9,6.32,9c3.32,0,5.61-2.04,5.82-4.97h2.76c-.68,4.88-3.48,7.3-8.32,7.3-6.37,0-9.34-5.48-9.34-11.3s3.18-11.3,9.51-11.3c4.38,0,7.94,2.63,8.16,7.18h-2.76Z"/>
      <path class="cls-1" d="M185.12,101.24h.08c1.49-2.63,3.91-3.87,6.67-3.87,6.97,0,7.52,6.16,7.52,8.62v13.33h-2.55v-13.76c0-3.69-2.12-5.86-5.61-5.86-4.2,0-6.11,3.53-6.11,7.35v12.27h-2.55v-30.66h2.55v12.57Z"/>
      <path class="cls-1" d="M206.44,91.85h-2.97v-3.19h2.97v3.19ZM206.22,119.33h-2.55v-21.32h2.55v21.32Z"/>
      <rect class="cls-1" x="211.24" y="88.67" width="2.55" height="30.66"/>
      <path class="cls-1" d="M233.84,116.19l-.09-.17c-1.74,2.55-4.32,3.95-7.3,3.95-6.33,0-8.75-6.03-8.75-11.38s2.42-11.21,8.75-11.21c2.84,0,5.82,1.36,7.3,3.87l.09-.09v-12.48h2.55v25.86c0,1.66.13,3.35.21,4.8h-2.63l-.13-3.14ZM226.88,99.71c-4.84,0-6.42,4.5-6.42,8.58s1.15,9.34,6.03,9.34c5.56,0,7.26-4.63,7.26-9.47,0-4.33-1.91-8.45-6.87-8.45"/>
    </g>
  </g>
</svg>